<?xml version="1.0" encoding="UTF-8"?>
<svg width="32px" height="32px" viewBox="0 0 32 32" version="1.1" xmlns="http://www.w3.org/2000/svg" xmlns:xlink="http://www.w3.org/1999/xlink">
    <!-- Generator: Sketch 61.2 (89653) - https://sketch.com -->
    <title>behance_icon</title>
    <desc>Created with Sketch.</desc>
    <g id="Welcome" stroke="none" stroke-width="1" fill="none" fill-rule="evenodd">
        <g id="Desktop" transform="translate(-57.000000, -292.000000)" fill="#2B56A0">
            <g id="behance_icon" transform="translate(57.000000, 292.000000)">
                <path d="M12.6612,13.3321333 C12.6612,12.5952667 12.0549333,12 11.3161333,12 L8,12 L8,14.6666667 L11.3162,14.6666667 C12.0549333,14.6666667 12.6612,14.0699333 12.6612,13.3321333 Z" id="Path"></path>
                <path d="M11.3162,16.6666667 L8,16.6666667 L8,20 L11.9981333,20 C12.7362,20 13.3221333,19.1372 13.3221333,18.3986 C13.3221333,16.9812667 12.0549333,16.6666667 11.3162,16.6666667 Z" id="Path"></path>
                <path d="M27.8986,0 L4.1014,0 C1.8478,0 0,1.84786667 0,4.10146667 L0,27.8984667 C0,30.1520667 1.8478,32 4.1014,32 L27.8985333,32 C30.1524,32 32,30.1520667 32,27.8985333 L32,4.10146667 C32,1.84786667 30.1524,0 27.8986,0 Z M18.6666667,10 L24.6666667,10 L24.6666667,12 L18.6666667,12 L18.6666667,10 Z M11.9981333,22.6666667 L5.33333333,22.6666667 L5.33333333,9.33333333 L11.9981333,9.33333333 C13.8328667,9.33333333 15.3272,10.8220667 15.3272,12.6764 C15.3272,13.8678667 14.6841333,14.9232667 13.7384,15.5094667 C15.0432667,15.9631333 16.0089333,17.2058 16.0089333,18.6623333 C16.0089333,20.8738 14.192,22.6666667 11.9981333,22.6666667 Z M26.6666667,18 L19.3387333,18 C19.4325333,19.4666667 20.4163333,20.6687333 21.684,20.6687333 C22.9318667,20.6687333 23.6326667,19.8666667 23.8784,18.6666667 L26.5834667,18.6666667 C26.1298,20.9333333 24.6918667,22.6748667 21.684,22.6748667 C18.6573333,22.6748667 16.6704,20.4438 16.6704,17.6637333 C16.6704,14.902 18.6515333,12.6723333 21.6782,12.6723333 C24.6860667,12.6723333 26.6666667,14.9020667 26.6666667,17.6632667 C26.6666667,17.776 26.6666667,17.8666667 26.6666667,18 Z" id="Shape"></path>
                <path d="M21.684,14.6804667 C20.5111333,14.6804667 19.6222,15.4666667 19.4698,16.6666667 L23.8784,16.6666667 C23.6888,15.4666667 22.8375333,14.6804667 21.684,14.6804667 Z" id="Path"></path>
            </g>
        </g>
    </g>
</svg>