<?xml version="1.0" standalone="no"?>
<svg viewBox="0 0 200 200" xmlns="http://www.w3.org/2000/svg">
  <path fill="#E8DAFF" d="M35,-61.4C48.3,-52.9,64,-49.5,71.6,-40.1C79.2,-30.7,78.5,-15.4,76.9,-0.9C75.3,13.5,72.8,27,65.3,36.6C57.8,46.1,45.4,51.6,33.7,61.4C22,71.2,11,85.3,-1.7,88.2C-14.3,91.1,-28.7,82.8,-43,74.5C-57.2,66.2,-71.5,57.8,-78.7,45.4C-86,33,-86.2,16.5,-81.6,2.6C-77,-11.2,-67.6,-22.4,-60.1,-34.3C-52.5,-46.2,-46.8,-58.7,-37.1,-69.3C-27.4,-79.9,-13.7,-88.7,-1.4,-86.2C10.8,-83.7,21.7,-70,35,-61.4Z" transform="translate(100 100)" />
</svg>
