<?xml version="1.0" encoding="UTF-8"?>
<svg width="86px" height="78px" viewBox="0 0 86 78" version="1.1" xmlns="http://www.w3.org/2000/svg" xmlns:xlink="http://www.w3.org/1999/xlink">
    <!-- Generator: Sketch 61.2 (89653) - https://sketch.com -->
    <title>blob</title>
    <desc>Created with Sketch.</desc>
    <g id="Welcome" stroke="none" stroke-width="1" fill="none" fill-rule="evenodd" opacity="0.504696801">
        <g id="Desktop" transform="translate(-469.000000, -505.000000)" fill="#2B7E78" fill-rule="nonzero">
            <g id="view-page-button-hover" transform="translate(447.000000, 484.826940)">
                <g id="blob" transform="translate(60.868631, 59.000000) rotate(-50.000000) translate(-60.868631, -59.000000) translate(25.368631, 10.000000)">
                    <path d="M48.2120428,5.34568734 C50.1959722,9.19619084 50.791151,14.9326552 53.5190539,19.6475575 C56.1973586,24.3624597 61.0083874,28.0557998 64.7778532,35.2067349 C68.5969173,42.4362516 71.4240167,53.0447817 70.7296414,63.3389849 C70.0352661,73.5546065 65.8690144,83.3773195 60.0660209,89.1137839 C54.2134292,94.8502482 46.773694,96.500464 39.0363694,97.1291177 C31.2990447,97.836353 23.3633271,97.6006079 19.5938613,89.9781826 C15.8243955,82.3557573 16.2707796,67.3466518 12.4517155,56.423795 C8.58305317,45.5009381 0.498540888,38.6643299 0.845728532,32.0634667 C1.24251441,25.5411853 10.0710002,19.3332307 16.5187707,15.5613089 C22.916943,11.7108054 26.9344001,10.217753 30.30708,7.70313846 C33.7293582,5.10994223 36.5068594,1.49518384 39.6315482,0.630785096 C42.7066387,-0.312195353 46.1785152,1.57376554 48.2120428,5.34568734 Z" id="Path"></path>
                </g>
            </g>
        </g>
    </g>
</svg>