<?xml version="1.0" encoding="UTF-8"?>
<svg width="509px" height="531px" viewBox="0 0 509 531" version="1.1" xmlns="http://www.w3.org/2000/svg" xmlns:xlink="http://www.w3.org/1999/xlink">
    <title>Group</title>
    <defs>
        <filter x="-8.6%" y="-8.2%" width="117.3%" height="116.5%" filterUnits="objectBoundingBox" id="filter-1">
            <feOffset dx="0" dy="5" in="SourceAlpha" result="shadowOffsetOuter1"></feOffset>
            <feGaussianBlur stdDeviation="7.5" in="shadowOffsetOuter1" result="shadowBlurOuter1"></feGaussianBlur>
            <feColorMatrix values="0 0 0 0 0.330700861   0 0 0 0 0.119832596   0 0 0 0 0.00746723551  0 0 0 0.5 0" type="matrix" in="shadowBlurOuter1" result="shadowMatrixOuter1"></feColorMatrix>
            <feMerge>
                <feMergeNode in="shadowMatrixOuter1"></feMergeNode>
                <feMergeNode in="SourceGraphic"></feMergeNode>
            </feMerge>
        </filter>
    </defs>
    <g id="Page-1" stroke="none" stroke-width="1" fill="none" fill-rule="evenodd">
        <g id="A4" transform="translate(-43.000000, -139.000000)" fill-rule="nonzero">
            <g id="Group" transform="translate(72.000000, 168.000000)">
                <g id="blob-(7)" filter="url(#filter-1)" fill="#FFBB8F">
                    <path d="M357.730147,9.7017221 C385.217596,29.5537685 387.050092,86.6665789 403.847978,134.006074 C420.645863,181.345569 452.714553,218.606333 450.271225,252.50752 C447.52248,286.103291 410.261716,316.644901 378.498441,349.019007 C346.429751,381.69853 320.163967,416.515965 281.681538,441.865501 C243.19911,467.215038 193.11087,483.402091 160.431347,462.939212 C127.751825,442.476334 112.786436,385.668939 100.875208,342.605269 C88.658564,299.5416 79.496081,270.221654 55.9790414,231.43381 C32.767418,192.645965 -4.79876215,144.390222 1.00414372,110.183618 C7.11246569,75.6715994 56.8952897,54.9033047 101.48604,42.9920768 C146.07679,31.080849 185.780883,28.026688 231.898714,17.6425407 C278.016545,7.25839331 330.548114,-10.1503243 357.730147,9.7017221 Z" id="Path"></path>
                </g>
                <g id="noun_Happy_2264647" transform="translate(233.000000, 205.000000) rotate(-12.000000) translate(-233.000000, -205.000000) translate(121.000000, 93.000000)" fill="#130F3A">
                    <path d="M223.999993,92.3800691 C223.999993,92.2570968 223.999993,92.1297326 223.973639,92.0067603 L223.947285,91.8091261 C223.925324,91.6773701 223.89897,91.5500058 223.863831,91.4182498 C223.863831,91.3699392 223.841869,91.3172368 223.828692,91.2645343 C223.776905,91.0879198 223.713818,90.9148161 223.639822,90.7462938 C223.639822,90.7199426 223.613468,90.6935913 223.600291,90.6628483 C223.534406,90.5267003 223.464129,90.3905524 223.389459,90.2587963 C223.354321,90.2060938 223.319182,90.1533914 223.288436,90.100689 C223.25769,90.0479866 223.147881,89.898663 223.073212,89.8020419 C222.998542,89.7054207 222.989758,89.696637 222.941442,89.6439346 C222.865248,89.5508612 222.783085,89.4628382 222.695472,89.3804224 C222.647156,89.3321119 222.603233,89.2838013 222.550525,89.2398826 L222.489032,89.1783964 L204.919717,73.9913124 L204.919717,36.3442088 C204.919717,27.8547403 198.036923,20.9726663 189.546567,20.9726663 L143.550101,20.9726663 L124.733364,4.70079057 C117.411614,-1.56693019 106.614747,-1.56693019 99.2929965,4.70079057 L80.4411216,20.9726663 L34.4578324,20.9726663 C25.9674758,20.9726663 19.0846819,27.8547403 19.0846819,36.3442088 L19.0846819,73.9913124 L1.51097473,89.1696127 L1.44948213,89.2310989 C1.39677418,89.2750176 1.3528509,89.3233281 1.30453528,89.3716387 C1.21692173,89.4540545 1.13475839,89.5420774 1.05856487,89.6351508 C1.01024926,89.6878533 0.970718298,89.7405557 0.926795011,89.7932581 C0.882871724,89.8459606 0.781848163,89.9908923 0.711570904,90.0919052 C0.641293645,90.1929182 0.645685973,90.1973101 0.610547344,90.2500125 C0.535877756,90.3817686 0.465600496,90.5179166 0.399715566,90.6540645 C0.399715566,90.6848076 0.368969265,90.7111588 0.360184607,90.73751 C0.286188591,90.9060324 0.223101837,91.0791361 0.171314473,91.2557506 C0.171314473,91.308453 0.171314473,91.3611555 0.136175843,91.409466 C0.101037214,91.5412221 0.0746832412,91.6685863 0.0527215977,91.8003424 L0.0263676254,91.9979765 C0.0263676254,92.1209489 0.00440598189,92.2483131 6.82128356e-06,92.3712854 C6.82128356e-06,92.4108122 6.82128356e-06,92.4503391 6.82128356e-06,92.4898659 L6.82128356e-06,206.147051 C-0.00877100423,215.998014 8.45524642,224 18.8782424,224 L205.11298,224 C215.518406,224 223.999993,215.984839 223.999993,206.133876 L223.999993,92.4986496 C223.999993,92.4591228 223.999993,92.419596 223.999993,92.3800691 Z M212.5448,92.1956106 L204.910933,97.7117985 L204.910933,85.599023 L212.5448,92.1956106 Z M105.020593,11.3456888 C109.05558,7.96380998 114.935642,7.96380998 118.970629,11.3456888 L130.113967,20.9726663 L93.8772552,20.9726663 L105.020593,11.3456888 Z M27.8737316,36.3442088 C27.8737316,32.7058652 30.8235005,29.7564049 34.4622247,29.7564049 L189.53339,29.7564049 C193.172114,29.7564049 196.121883,32.7058652 196.121883,36.3442088 L196.121883,104.066833 L111.995611,164.903007 L27.8737316,104.066833 L27.8737316,36.3442088 Z M19.0890742,85.599023 L19.0890742,97.7117985 L11.4552069,92.1956106 L19.0890742,85.599023 Z M215.215336,206.147051 C215.215336,211.153782 210.691237,215.229437 205.11298,215.229437 L18.8782424,215.229437 C13.3175543,215.229437 8.77588641,211.153782 8.77588641,206.147051 L8.77588641,101.09793 L109.421706,173.879988 C110.957843,174.990773 113.033379,174.990773 114.569516,173.879988 L215.215336,101.09793 L215.215336,206.147051 Z" id="Shape"></path>
                    <path d="M131.627619,94 L92.3723811,94 C89.9575817,94 88,96.0008849 88,98.4691016 C88,112.017143 98.745166,123 112,123 C125.254834,123 136,112.017143 136,98.4691016 C136,97.2838221 135.53934,96.1470887 134.719359,95.3089695 C133.899379,94.4708504 132.787246,94 131.627619,94 L131.627619,94 Z" id="Path"></path>
                    <path d="M142.002177,73 C135.377247,73.0046967 130.007204,78.2569945 130,84.7390146 C130,87.0922919 131.949767,89 134.354927,89 C136.760086,89 138.709853,87.0922919 138.709853,84.7390146 C138.774279,83.0066686 140.228289,81.6348481 142,81.6348481 C143.771711,81.6348481 145.225721,83.0066686 145.290147,84.7390146 C145.290147,87.0922919 147.239914,89 149.645073,89 C152.050233,89 154,87.0922919 154,84.7390146 C153.9928,78.2586563 148.625407,73.0070452 142.002177,73 L142.002177,73 Z" id="Path"></path>
                    <path d="M94,84.6797679 C93.8754379,78.1935329 88.5395104,73 82,73 C75.4604896,73 70.1245621,78.1935329 70,84.6797679 C70,87.0657662 71.949767,89 74.3549265,89 C76.760086,89 78.709853,87.0657662 78.709853,84.6797679 C78.7742789,82.9233345 80.2282894,81.5324396 82,81.5324396 C83.7717106,81.5324396 85.2257211,82.9233345 85.290147,84.6797679 C85.290147,87.0657662 87.239914,89 89.6450735,89 C92.050233,89 94,87.0657662 94,84.6797679 L94,84.6797679 Z" id="Path"></path>
                </g>
            </g>
        </g>
    </g>
</svg>