<?xml version="1.0" encoding="UTF-8"?>
<svg width="95px" height="48px" viewBox="0 0 95 48" version="1.1" xmlns="http://www.w3.org/2000/svg" xmlns:xlink="http://www.w3.org/1999/xlink">
    <!-- Generator: Sketch 61.2 (89653) - https://sketch.com -->
    <title>email click</title>
    <desc>Created with Sketch.</desc>
    <g id="Welcome" stroke="none" stroke-width="1" fill="none" fill-rule="evenodd">
        <g id="Desktop" transform="translate(-613.000000, -644.000000)">
            <g id="email-click" transform="translate(615.000000, 646.000000)">
                <rect id="Background" stroke="#130F3A" stroke-width="3" fill-opacity="0.504534528" fill="#E1541F" x="0" y="0" width="91" height="44" rx="15"></rect>
                <path d="M15.28,27.24 C15.8453333,27.24 16.4133333,27.192 16.984,27.096 C17.5546667,27 18.0213333,26.8773333 18.384,26.728 L18.384,26.728 L18.384,25.176 C18,25.3253333 17.552,25.4426667 17.04,25.528 C16.528,25.6133333 16.0266667,25.656 15.536,25.656 C13.6906667,25.656 12.6986667,25.0853333 12.56,23.944 L12.56,23.944 L19.104,23.944 L19.104,23.016 C19.104,22.2586667 18.944,21.584 18.624,20.992 C18.304,20.4 17.8266667,19.9333333 17.192,19.592 C16.5573333,19.2506667 15.792,19.08 14.896,19.08 C13.5306667,19.08 12.48,19.448 11.744,20.184 C11.008,20.92 10.64,21.9173333 10.64,23.176 C10.64,24.456 11.056,25.4533333 11.888,26.168 C12.72,26.8826667 13.8506667,27.24 15.28,27.24 Z M17.2,22.568 L12.56,22.568 C12.5813333,21.9813333 12.7946667,21.5173333 13.2,21.176 C13.6053333,20.8346667 14.16,20.664 14.864,20.664 C15.5786667,20.664 16.1413333,20.8293333 16.552,21.16 C16.9626667,21.4906667 17.1786667,21.96 17.2,22.568 L17.2,22.568 Z M22.656,27 L22.656,21.896 C23.232,21.0746667 23.8826667,20.664 24.608,20.664 C25.088,20.664 25.4186667,20.7733333 25.6,20.992 C25.7813333,21.2106667 25.872,21.5973333 25.872,22.152 L25.872,22.152 L25.872,27 L27.824,27 L27.824,22.376 C27.824,22.1626667 27.8133333,21.8853333 27.792,21.544 C28.0266667,21.224 28.2853333,20.9973333 28.568,20.864 C28.8506667,20.7306667 29.1626667,20.664 29.504,20.664 C29.984,20.664 30.3333333,20.7813333 30.552,21.016 C30.7706667,21.2506667 30.88,21.64 30.88,22.184 L30.88,22.184 L30.88,27 L32.816,27 L32.816,21.912 C32.816,20.984 32.608,20.28 32.192,19.8 C31.776,19.32 31.088,19.08 30.128,19.08 C29.648,19.08 29.1653333,19.1813333 28.68,19.384 C28.1946667,19.5866667 27.7813333,19.88 27.44,20.264 C27.2586667,19.8693333 26.9866667,19.5733333 26.624,19.376 C26.2613333,19.1786667 25.7813333,19.08 25.184,19.08 C24.7146667,19.08 24.2506667,19.1866667 23.792,19.4 C23.3333333,19.6133333 22.9333333,19.9226667 22.592,20.328 L22.592,20.328 L22.592,19.32 L20.704,19.32 L20.704,27 L22.656,27 Z M37.232,27.24 C37.84,27.24 38.3546667,27.1546667 38.776,26.984 C39.1973333,26.8133333 39.5733333,26.568 39.904,26.248 L39.904,26.248 L39.904,27 L41.808,27 L41.808,22.312 C41.808,21.2986667 41.488,20.5066667 40.848,19.936 C40.208,19.3653333 39.2213333,19.08 37.888,19.08 C37.3866667,19.08 36.8666667,19.128 36.328,19.224 C35.7893333,19.32 35.36,19.4426667 35.04,19.592 L35.04,19.592 L35.04,21.176 C35.392,21.016 35.7973333,20.8906667 36.256,20.8 C36.7146667,20.7093333 37.1786667,20.664 37.648,20.664 C38.3946667,20.664 38.936,20.7866667 39.272,21.032 C39.608,21.2773333 39.776,21.672 39.776,22.216 L39.776,22.216 L39.776,22.424 C39.072,22.0293333 38.2346667,21.832 37.264,21.832 C36.2613333,21.832 35.4826667,22.072 34.928,22.552 C34.3733333,23.032 34.096,23.6986667 34.096,24.552 C34.096,25.3733333 34.3893333,26.0266667 34.976,26.512 C35.5626667,26.9973333 36.3146667,27.24 37.232,27.24 Z M37.728,25.768 C37.216,25.768 36.824,25.6666667 36.552,25.464 C36.28,25.2613333 36.144,24.9573333 36.144,24.552 C36.144,23.72 36.6826667,23.304 37.76,23.304 C38.5173333,23.304 39.1893333,23.512 39.776,23.928 L39.776,23.928 L39.776,24.776 C39.584,25.0853333 39.3066667,25.328 38.944,25.504 C38.5813333,25.68 38.176,25.768 37.728,25.768 Z M44.784,17.976 C45.104,17.976 45.376,17.8693333 45.6,17.656 C45.824,17.4426667 45.936,17.176 45.936,16.856 C45.936,16.536 45.824,16.2666667 45.6,16.048 C45.376,15.8293333 45.104,15.72 44.784,15.72 C44.464,15.72 44.1946667,15.8293333 43.976,16.048 C43.7573333,16.2666667 43.648,16.536 43.648,16.856 C43.648,17.176 43.7573333,17.4426667 43.976,17.656 C44.1946667,17.8693333 44.464,17.976 44.784,17.976 Z M45.808,27 L45.808,19.32 L43.76,19.32 L43.76,27 L45.808,27 Z M49.872,27 L49.872,15.176 L47.856,15.176 L47.856,27 L49.872,27 Z M59.504,27 L59.504,21.896 C60.08,21.0746667 60.7306667,20.664 61.456,20.664 C61.936,20.664 62.2666667,20.7733333 62.448,20.992 C62.6293333,21.2106667 62.72,21.5973333 62.72,22.152 L62.72,22.152 L62.72,27 L64.672,27 L64.672,22.376 C64.672,22.1626667 64.6613333,21.8853333 64.64,21.544 C64.8746667,21.224 65.1333333,20.9973333 65.416,20.864 C65.6986667,20.7306667 66.0106667,20.664 66.352,20.664 C66.832,20.664 67.1813333,20.7813333 67.4,21.016 C67.6186667,21.2506667 67.728,21.64 67.728,22.184 L67.728,22.184 L67.728,27 L69.664,27 L69.664,21.912 C69.664,20.984 69.456,20.28 69.04,19.8 C68.624,19.32 67.936,19.08 66.976,19.08 C66.496,19.08 66.0133333,19.1813333 65.528,19.384 C65.0426667,19.5866667 64.6293333,19.88 64.288,20.264 C64.1066667,19.8693333 63.8346667,19.5733333 63.472,19.376 C63.1093333,19.1786667 62.6293333,19.08 62.032,19.08 C61.5626667,19.08 61.0986667,19.1866667 60.64,19.4 C60.1813333,19.6133333 59.7813333,19.9226667 59.44,20.328 L59.44,20.328 L59.44,19.32 L57.552,19.32 L57.552,27 L59.504,27 Z M75.824,27.24 C76.3893333,27.24 76.9573333,27.192 77.528,27.096 C78.0986667,27 78.5653333,26.8773333 78.928,26.728 L78.928,26.728 L78.928,25.176 C78.544,25.3253333 78.096,25.4426667 77.584,25.528 C77.072,25.6133333 76.5706667,25.656 76.08,25.656 C74.2346667,25.656 73.2426667,25.0853333 73.104,23.944 L73.104,23.944 L79.648,23.944 L79.648,23.016 C79.648,22.2586667 79.488,21.584 79.168,20.992 C78.848,20.4 78.3706667,19.9333333 77.736,19.592 C77.1013333,19.2506667 76.336,19.08 75.44,19.08 C74.0746667,19.08 73.024,19.448 72.288,20.184 C71.552,20.92 71.184,21.9173333 71.184,23.176 C71.184,24.456 71.6,25.4533333 72.432,26.168 C73.264,26.8826667 74.3946667,27.24 75.824,27.24 Z M77.744,22.568 L73.104,22.568 C73.1253333,21.9813333 73.3386667,21.5173333 73.744,21.176 C74.1493333,20.8346667 74.704,20.664 75.408,20.664 C76.1226667,20.664 76.6853333,20.8293333 77.096,21.16 C77.5066667,21.4906667 77.7226667,21.96 77.744,22.568 L77.744,22.568 Z" id="emailme" fill="#130F3A" fill-rule="nonzero"></path>
            </g>
        </g>
    </g>
</svg>