<?xml version="1.0" encoding="UTF-8"?>
<svg width="243px" height="69px" viewBox="0 0 243 69" version="1.1" xmlns="http://www.w3.org/2000/svg" xmlns:xlink="http://www.w3.org/1999/xlink">
    <title>fitted logo</title>
    <g id="Welcome" stroke="none" stroke-width="1" fill="none" fill-rule="evenodd">
        <g id="Desktop" transform="translate(-372.000000, -203.000000)">
            <g id="fitted-logo" transform="translate(372.775000, 203.000000)">
                <path d="M160.316573,20.8580374 C190.405613,20.8580374 241.225,-13.4348517 241.225,5.92198747 C241.225,25.2788266 229.207431,70.9219875 199.625724,67.9219875 C184.339655,66.3717657 155.9677,39.0346562 117.81449,41 C78.9884985,43 61.1337506,32.0369537 79.4500371,20.9219875 C117.3516,-2.07801253 130.227532,20.8580374 160.316573,20.8580374 Z M169.371,37.622 L167.655,37.622 L167.655,47.5 C167.655,50.25 167.655,50.25 169.206,51.79 C170.757,53.33 170.757,53.33 173.793,53.33 C176.829,53.33 176.829,53.33 178.38,51.79 C179.839765,50.3405882 179.839765,50.3405882 179.925633,47.8193426 L179.931,47.5 L179.931,37.622 L178.215,37.622 L178.215,47.632 C178.215,49.722 178.215,49.722 177.049,50.756 C175.883,51.79 175.883,51.79 173.793,51.79 C171.703,51.79 171.703,51.79 170.537,50.756 C169.448733,49.7909333 169.448733,49.7909333 169.376182,47.9059733 L169.371,47.632 L169.371,37.622 Z M210.115,37.622 L208.399,37.622 L208.399,47.5 C208.399,50.25 208.399,50.25 209.95,51.79 C211.501,53.33 211.501,53.33 214.537,53.33 C217.573,53.33 217.573,53.33 219.124,51.79 C220.583765,50.3405882 220.583765,50.3405882 220.669633,47.8193426 L220.675,47.5 L220.675,37.622 L218.959,37.622 L218.959,47.632 C218.959,49.722 218.959,49.722 217.793,50.756 C216.627,51.79 216.627,51.79 214.537,51.79 C212.447,51.79 212.447,51.79 211.281,50.756 C210.192733,49.7909333 210.192733,49.7909333 210.120182,47.9059733 L210.115,47.632 L210.115,37.622 Z M184.199,37.622 L182.241,37.622 L187.785,45.124 L181.955,53 L183.913,53 L188.753,46.444 L193.615,53 L195.573,53 L189.743,45.124 L195.287,37.622 L193.329,37.622 L188.753,43.804 L184.199,37.622 Z M205.869,37.292 L204.087,37.292 L197.817,53 L199.599,53 L205.869,37.292 Z M225.383,37.622 L223.667,37.622 L223.667,53 L225.383,53 L225.383,37.622 Z" id="Combined-Shape" fill-opacity="0.503551136" fill="#8D5CDF"></path>
                <path d="M1.924,29 L1.924,16.309 C3.7,13.6203333 6.068,12.276 9.028,12.276 C10.8533333,12.276 12.173,12.7261667 12.987,13.6265 C13.801,14.5268333 14.208,15.8156667 14.208,17.493 L14.208,17.493 L14.208,29 L16.169,29 L16.169,17.345 C16.169,15.3223333 15.6016667,13.7066667 14.467,12.498 C13.3323333,11.2893333 11.6056667,10.685 9.287,10.685 C7.85633333,10.685 6.4935,10.9686667 5.1985,11.536 C3.9035,12.1033333 2.79966667,13.0036667 1.887,14.237 L1.887,14.237 L1.887,11.24 L-1.27897692e-13,11.24 L-1.27897692e-13,29 L1.924,29 Z M22.903,7.022 C23.273,7.022 23.5936667,6.8925 23.865,6.6335 C24.1363333,6.3745 24.272,6.04766667 24.272,5.653 C24.272,5.283 24.1363333,4.96233333 23.865,4.691 C23.5936667,4.41966667 23.273,4.284 22.903,4.284 C22.5083333,4.284 22.1815,4.41966667 21.9225,4.691 C21.6635,4.96233333 21.534,5.283 21.534,5.653 C21.534,6.04766667 21.6635,6.3745 21.9225,6.6335 C22.1815,6.8925 22.5083333,7.022 22.903,7.022 Z M23.865,29 L23.865,11.24 L21.941,11.24 L21.941,29 L23.865,29 Z M38.591,29.555 C40.0216667,29.555 41.2735,29.4193333 42.3465,29.148 C43.4195,28.8766667 44.3753333,28.445 45.214,27.853 L45.214,27.853 L45.214,26.188 C44.2766667,26.8046667 43.2961667,27.261 42.2725,27.557 C41.2488333,27.853 40.071,28.001 38.739,28.001 C37.2836667,28.001 35.964,27.6926667 34.78,27.076 C33.596,26.4593333 32.6648333,25.559 31.9865,24.375 C31.3081667,23.191 30.969,21.785 30.969,20.157 C30.969,18.529 31.3143333,17.123 32.005,15.939 C32.6956667,14.755 33.6391667,13.8485 34.8355,13.2195 C36.0318333,12.5905 37.37,12.276 38.85,12.276 C40.108,12.276 41.2303333,12.4055 42.217,12.6645 C43.2036667,12.9235 44.1163333,13.349 44.955,13.941 L44.955,13.941 L44.955,12.276 C44.141,11.7086667 43.2345,11.3016667 42.2355,11.055 C41.2365,10.8083333 40.071,10.685 38.739,10.685 C36.9136667,10.685 35.2671667,11.0735 33.7995,11.8505 C32.3318333,12.6275 31.1786667,13.7375 30.34,15.1805 C29.5013333,16.6235 29.082,18.2823333 29.082,20.157 C29.082,22.0563333 29.5013333,23.7213333 30.34,25.152 C31.1786667,26.5826667 32.3195,27.6741667 33.7625,28.4265 C35.2055,29.1788333 36.815,29.555 38.591,29.555 Z M57.535,29.555 C59.385,29.555 61.0376667,29.1665 62.493,28.3895 C63.9483333,27.6125 65.083,26.5148333 65.897,25.0965 C66.711,23.6781667 67.118,22.0316667 67.118,20.157 C67.118,18.2823333 66.7048333,16.6296667 65.8785,15.199 C65.0521667,13.7683333 63.9175,12.6583333 62.4745,11.869 C61.0315,11.0796667 59.385,10.685 57.535,10.685 C55.685,10.685 54.0385,11.0796667 52.5955,11.869 C51.1525,12.6583333 50.024,13.7683333 49.21,15.199 C48.396,16.6296667 47.989,18.2823333 47.989,20.157 C47.989,22.0316667 48.396,23.6781667 49.21,25.0965 C50.024,26.5148333 51.1525,27.6125 52.5955,28.3895 C54.0385,29.1665 55.685,29.555 57.535,29.555 Z M57.535,28.001 C56.0303333,28.001 54.6983333,27.6803333 53.539,27.039 C52.3796667,26.3976667 51.4793333,25.485 50.838,24.301 C50.1966667,23.117 49.876,21.7356667 49.876,20.157 C49.876,18.5783333 50.1966667,17.1908333 50.838,15.9945 C51.4793333,14.7981667 52.3796667,13.8793333 53.539,13.238 C54.6983333,12.5966667 56.0303333,12.276 57.535,12.276 C59.0396667,12.276 60.3716667,12.5966667 61.531,13.238 C62.6903333,13.8793333 63.5906667,14.7981667 64.232,15.9945 C64.8733333,17.1908333 65.194,18.5783333 65.194,20.157 C65.194,21.7356667 64.8733333,23.117 64.232,24.301 C63.5906667,25.485 62.6903333,26.3976667 61.531,27.039 C60.3716667,27.6803333 59.0396667,28.001 57.535,28.001 Z M73.852,29 L73.852,1.657 L71.928,1.657 L71.928,29 L73.852,29 Z M88.726,29.555 C89.8606667,29.555 91.0508333,29.4563333 92.2965,29.259 C93.5421667,29.0616667 94.5226667,28.815 95.238,28.519 L95.238,28.519 L95.238,26.854 C94.3746667,27.224 93.388,27.5076667 92.278,27.705 C91.168,27.9023333 90.0333333,28.001 88.874,28.001 C86.3086667,28.001 84.2736667,27.3966667 82.769,26.188 C81.2643333,24.9793333 80.4873333,23.2033333 80.438,20.86 L80.438,20.86 L97.051,20.86 L97.051,19.639 C97.051,17.9123333 96.6995,16.3706667 95.9965,15.014 C95.2935,13.6573333 94.2513333,12.5966667 92.87,11.832 C91.4886667,11.0673333 89.8113333,10.685 87.838,10.685 C84.9026667,10.685 82.6395,11.536 81.0485,13.238 C79.4575,14.94 78.662,17.2463333 78.662,20.157 C78.662,23.1416667 79.5438333,25.4541667 81.3075,27.0945 C83.0711667,28.7348333 85.544,29.555 88.726,29.555 Z M95.275,19.417 L80.438,19.417 C80.4626667,17.3203333 81.0978333,15.606 82.3435,14.274 C83.5891667,12.942 85.4206667,12.276 87.838,12.276 C90.3046667,12.276 92.1546667,12.9173333 93.388,14.2 C94.6213333,15.4826667 95.2503333,17.2216667 95.275,19.417 L95.275,19.417 Z M126.318,29.555 C128.044667,29.555 129.617167,29.1726667 131.0355,28.408 C132.453833,27.6433333 133.57,26.5518333 134.384,25.1335 C135.198,23.7151667 135.605,22.0563333 135.605,20.157 C135.605,18.307 135.198,16.6605 134.384,15.2175 C133.57,13.7745 132.453833,12.6583333 131.0355,11.869 C129.617167,11.0796667 128.044667,10.685 126.318,10.685 C124.616,10.685 123.025,11.0365 121.545,11.7395 C120.065,12.4425 118.955,13.46 118.215,14.792 L118.215,14.792 L118.215,1.657 L116.291,1.657 L116.291,29 L118.178,29 L118.178,25.448 C119.954,28.186 122.667333,29.555 126.318,29.555 Z M126.022,28.001 C124.147333,28.001 122.513167,27.52 121.1195,26.558 C119.725833,25.596 118.757667,24.2763333 118.215,22.599 L118.215,22.599 L118.215,17.752 C118.708333,16.05 119.670333,14.7118333 121.101,13.7375 C122.531667,12.7631667 124.172,12.276 126.022,12.276 C127.428,12.276 128.716833,12.6028333 129.8885,13.2565 C131.060167,13.9101667 131.985167,14.8351667 132.6635,16.0315 C133.341833,17.2278333 133.681,18.603 133.681,20.157 C133.681,21.711 133.341833,23.08 132.6635,24.264 C131.985167,25.448 131.060167,26.3668333 129.8885,27.0205 C128.716833,27.6741667 127.428,28.001 126.022,28.001 Z M142.339,29 L142.339,17.567 C143.473667,14.4096667 146.224,12.831 150.59,12.831 L150.59,12.831 L150.59,11.24 C146.544667,11.24 143.782,12.498 142.302,15.014 L142.302,15.014 L142.302,11.24 L140.415,11.24 L140.415,29 L142.339,29 Z M155.178,36.326 C156.485333,36.326 157.546,35.9621667 158.36,35.2345 C159.174,34.5068333 159.914,33.3536667 160.58,31.775 L160.58,31.775 L169.016,11.24 L166.981,11.24 L160.617,26.521 L153.92,11.24 L151.885,11.24 L159.618,28.852 L158.508,31.553 C158.039333,32.7123333 157.533667,33.5386667 156.991,34.032 C156.448333,34.5253333 155.708333,34.772 154.771,34.772 C153.907667,34.772 153.18,34.661 152.588,34.439 L152.588,34.439 L152.588,36.067 C153.303333,36.2396667 154.166667,36.326 155.178,36.326 Z M176.49,29.555 C178.734667,29.555 180.418167,29.1356667 181.5405,28.297 C182.662833,27.4583333 183.224,26.3236667 183.224,24.893 C183.224,23.4623333 182.78,22.34 181.892,21.526 C181.004,20.712 179.474667,20.009 177.304,19.417 C175.75,18.9976667 174.596833,18.6276667 173.8445,18.307 C173.092167,17.9863333 172.568,17.6163333 172.272,17.197 C171.976,16.7776667 171.828,16.198 171.828,15.458 C171.828,14.3726667 172.2535,13.571 173.1045,13.053 C173.9555,12.535 175.170333,12.276 176.749,12.276 C178.919667,12.276 180.732667,12.6706667 182.188,13.46 L182.188,13.46 L182.188,11.795 C180.782,11.055 178.944333,10.685 176.675,10.685 C174.627667,10.685 172.9935,11.092 171.7725,11.906 C170.5515,12.72 169.941,13.904 169.941,15.458 C169.941,16.494 170.163,17.3326667 170.607,17.974 C171.051,18.6153333 171.686167,19.1395 172.5125,19.5465 C173.338833,19.9535 174.479667,20.3543333 175.935,20.749 C177.415,21.1436667 178.537333,21.526 179.302,21.896 C180.066667,22.266 180.597,22.6791667 180.893,23.1355 C181.189,23.5918333 181.337,24.1776667 181.337,24.893 C181.337,26.965 179.709,28.001 176.453,28.001 C175.343,28.001 174.2145,27.8345 173.0675,27.5015 C171.9205,27.1685 170.890667,26.7183333 169.978,26.151 L169.978,26.151 L169.978,27.816 C170.668667,28.3093333 171.649167,28.7225 172.9195,29.0555 C174.189833,29.3885 175.38,29.555 176.49,29.555 Z M196.285,29.555 C198.135,29.555 199.787667,29.1665 201.243,28.3895 C202.698333,27.6125 203.833,26.5148333 204.647,25.0965 C205.461,23.6781667 205.868,22.0316667 205.868,20.157 C205.868,18.2823333 205.454833,16.6296667 204.6285,15.199 C203.802167,13.7683333 202.6675,12.6583333 201.2245,11.869 C199.7815,11.0796667 198.135,10.685 196.285,10.685 C194.435,10.685 192.7885,11.0796667 191.3455,11.869 C189.9025,12.6583333 188.774,13.7683333 187.96,15.199 C187.146,16.6296667 186.739,18.2823333 186.739,20.157 C186.739,22.0316667 187.146,23.6781667 187.96,25.0965 C188.774,26.5148333 189.9025,27.6125 191.3455,28.3895 C192.7885,29.1665 194.435,29.555 196.285,29.555 Z M196.285,28.001 C194.780333,28.001 193.448333,27.6803333 192.289,27.039 C191.129667,26.3976667 190.229333,25.485 189.588,24.301 C188.946667,23.117 188.626,21.7356667 188.626,20.157 C188.626,18.5783333 188.946667,17.1908333 189.588,15.9945 C190.229333,14.7981667 191.129667,13.8793333 192.289,13.238 C193.448333,12.5966667 194.780333,12.276 196.285,12.276 C197.789667,12.276 199.121667,12.5966667 200.281,13.238 C201.440333,13.8793333 202.340667,14.7981667 202.982,15.9945 C203.623333,17.1908333 203.944,18.5783333 203.944,20.157 C203.944,21.7356667 203.623333,23.117 202.982,24.301 C202.340667,25.485 201.440333,26.3976667 200.281,27.039 C199.121667,27.6803333 197.789667,28.001 196.285,28.001 Z M212.602,29 L212.602,16.309 C214.378,13.6203333 216.746,12.276 219.706,12.276 C221.531333,12.276 222.851,12.7261667 223.665,13.6265 C224.479,14.5268333 224.886,15.8156667 224.886,17.493 L224.886,17.493 L224.886,29 L226.847,29 L226.847,17.345 C226.847,15.3223333 226.279667,13.7066667 225.145,12.498 C224.010333,11.2893333 222.283667,10.685 219.965,10.685 C218.534333,10.685 217.1715,10.9686667 215.8765,11.536 C214.5815,12.1033333 213.477667,13.0036667 212.565,14.237 L212.565,14.237 L212.565,11.24 L210.678,11.24 L210.678,29 L212.602,29 Z" id="nicolebryson" fill="#130F3A" fill-rule="nonzero"></path>
            </g>
        </g>
    </g>
</svg>