<svg width="288" height="81" viewBox="0 0 288 81" fill="none" xmlns="http://www.w3.org/2000/svg">
<path fill-rule="evenodd" clip-rule="evenodd" d="M190.79 24.7878C226.598 24.7878 287.078 -15.9661 287.078 7.03772C287.078 30.0415 272.776 84.2841 237.571 80.7189C219.379 78.8766 185.614 46.389 140.209 48.7246C94.0027 51.1014 72.7541 38.0729 94.552 24.8638C139.658 -2.46952 154.981 24.7878 190.79 24.7878ZM201.565 44.7102H199.523V56.4493C199.523 59.7174 199.523 59.7174 201.369 61.5475C203.215 63.3777 203.215 63.3777 206.828 63.3777C210.441 63.3777 210.441 63.3777 212.287 61.5475C214.024 59.825 214.024 59.825 214.126 56.8288L214.133 56.4493V44.7102H212.09V56.6061C212.09 59.0899 212.09 59.0899 210.703 60.3187C209.315 61.5475 209.315 61.5475 206.828 61.5475C204.341 61.5475 204.341 61.5475 202.953 60.3187C201.658 59.1718 201.658 59.1718 201.572 56.9317L201.565 56.6061V44.7102ZM250.054 44.7102H248.012V56.4493C248.012 59.7174 248.012 59.7174 249.858 61.5475C251.704 63.3777 251.704 63.3777 255.317 63.3777C258.93 63.3777 258.93 63.3777 260.776 61.5475C262.513 59.825 262.513 59.825 262.615 56.8288L262.621 56.4493V44.7102H260.579V56.6061C260.579 59.0899 260.579 59.0899 259.192 60.3187C257.804 61.5475 257.804 61.5475 255.317 61.5475C252.829 61.5475 252.829 61.5475 251.442 60.3187C250.147 59.1718 250.147 59.1718 250.06 56.9317L250.054 56.6061V44.7102ZM219.212 44.7102H216.882L223.48 53.6256L216.541 62.9855H218.872L224.632 55.1943L230.418 62.9855H232.748L225.81 53.6256L232.408 44.7102H230.077L224.632 52.0569L219.212 44.7102ZM245.001 44.318H242.88L235.418 62.9855H237.539L245.001 44.318ZM268.224 44.7102H266.182V62.9855H268.224V44.7102Z" fill="#4EBFFF"/>
<path d="M2.28972 34.4638V19.3817C4.40331 16.1865 7.22142 14.5889 10.7441 14.5889C12.9164 14.5889 14.4869 15.1238 15.4556 16.1938C16.4243 17.2638 16.9087 18.7954 16.9087 20.7888V34.4638H19.2424V20.6129C19.2424 18.2091 18.5673 16.2891 17.2169 14.8527C15.8666 13.4163 13.8117 12.6981 11.0523 12.6981C9.34969 12.6981 7.7278 13.0352 6.18664 13.7094C4.64549 14.3837 3.33183 15.4536 2.24569 16.9193V13.3577H0V34.4638H2.28972ZM27.2565 8.34497C27.6968 8.34497 28.0784 8.19108 28.4013 7.88328C28.7242 7.57548 28.8857 7.18707 28.8857 6.71805C28.8857 6.27834 28.7242 5.89725 28.4013 5.5748C28.0784 5.25235 27.6968 5.09112 27.2565 5.09112C26.7868 5.09112 26.3978 5.25235 26.0896 5.5748C25.7814 5.89725 25.6272 6.27834 25.6272 6.71805C25.6272 7.18707 25.7814 7.57548 26.0896 7.88328C26.3978 8.19108 26.7868 8.34497 27.2565 8.34497ZM28.4013 34.4638V13.3577H26.1116V34.4638H28.4013ZM45.9265 35.1233C47.6291 35.1233 49.1189 34.9621 50.3958 34.6396C51.6728 34.3172 52.8103 33.8042 53.8084 33.1007V31.122C52.6929 31.8548 51.526 32.3971 50.3078 32.7489C49.0895 33.1007 47.6878 33.2765 46.1026 33.2765C44.3706 33.2765 42.8001 32.9101 41.3911 32.1773C39.982 31.4444 38.8739 30.3745 38.0666 28.9674C37.2593 27.5603 36.8557 25.8894 36.8557 23.9547C36.8557 22.02 37.2666 20.3491 38.0886 18.942C38.9105 17.5349 40.0334 16.4576 41.4571 15.7101C42.8809 14.9626 44.4734 14.5889 46.2347 14.5889C47.7318 14.5889 49.0675 14.7428 50.2417 15.0506C51.4159 15.3584 52.5021 15.864 53.5002 16.5676V14.5889C52.5314 13.9146 51.4526 13.431 50.2637 13.1378C49.0748 12.8447 47.6878 12.6981 46.1026 12.6981C43.9303 12.6981 41.9708 13.1598 40.2242 14.0832C38.4775 15.0066 37.1052 16.3257 36.1071 18.0406C35.109 19.7555 34.61 21.7268 34.61 23.9547C34.61 26.2119 35.109 28.1906 36.1071 29.8908C37.1052 31.591 38.4629 32.8881 40.1802 33.7822C41.8974 34.6763 43.8129 35.1233 45.9265 35.1233ZM68.4714 35.1233C70.6731 35.1233 72.6399 34.6616 74.3718 33.7382C76.1038 32.8148 77.4541 31.5104 78.4229 29.8248C79.3916 28.1393 79.876 26.1825 79.876 23.9547C79.876 21.7268 79.3843 19.7628 78.4009 18.0626C77.4175 16.3624 76.0671 15.0432 74.3498 14.1052C72.6325 13.1671 70.6731 12.6981 68.4714 12.6981C66.2697 12.6981 64.3103 13.1671 62.593 14.1052C60.8757 15.0432 59.5327 16.3624 58.564 18.0626C57.5952 19.7628 57.1109 21.7268 57.1109 23.9547C57.1109 26.1825 57.5952 28.1393 58.564 29.8248C59.5327 31.5104 60.8757 32.8148 62.593 33.7382C64.3103 34.6616 66.2697 35.1233 68.4714 35.1233ZM68.4714 33.2765C66.6807 33.2765 65.0955 32.8955 63.7158 32.1333C62.3361 31.3711 61.2647 30.2865 60.5014 28.8794C59.7382 27.4724 59.3566 25.8308 59.3566 23.9547C59.3566 22.0786 59.7382 20.4297 60.5014 19.0079C61.2647 17.5862 62.3361 16.4943 63.7158 15.7321C65.0955 14.9699 66.6807 14.5889 68.4714 14.5889C70.2621 14.5889 71.8473 14.9699 73.227 15.7321C74.6067 16.4943 75.6781 17.5862 76.4414 19.0079C77.2046 20.4297 77.5862 22.0786 77.5862 23.9547C77.5862 25.8308 77.2046 27.4724 76.4414 28.8794C75.6781 30.2865 74.6067 31.3711 73.227 32.1333C71.8473 32.8955 70.2621 33.2765 68.4714 33.2765ZM87.89 34.4638V1.96918H85.6003V34.4638H87.89ZM105.591 35.1233C106.942 35.1233 108.358 35.0061 109.84 34.7716C111.323 34.537 112.49 34.2439 113.341 33.8921V31.9134C112.314 32.3531 111.139 32.6903 109.818 32.9248C108.497 33.1593 107.147 33.2765 105.767 33.2765C102.714 33.2765 100.293 32.5583 98.5019 31.122C96.7113 29.6856 95.7866 27.575 95.7279 24.7901H115.499V23.3391C115.499 21.2871 115.08 19.455 114.244 17.8427C113.407 16.2304 112.167 14.9699 110.523 14.0612C108.879 13.1525 106.883 12.6981 104.534 12.6981C101.041 12.6981 98.3478 13.7094 96.4544 15.7321C94.561 17.7548 93.6143 20.4956 93.6143 23.9547C93.6143 27.5017 94.6637 30.2499 96.7626 32.1993C98.8615 34.1486 101.804 35.1233 105.591 35.1233ZM113.385 23.0753H95.7279C95.7572 20.5836 96.5131 18.5462 97.9956 16.9633C99.478 15.3803 101.658 14.5889 104.534 14.5889C107.47 14.5889 109.672 15.351 111.139 16.8754C112.607 18.3997 113.356 20.4663 113.385 23.0753ZM150.329 35.1233C152.384 35.1233 154.255 34.669 155.943 33.7602C157.631 32.8515 158.959 31.5543 159.928 29.8688C160.897 28.1832 161.381 26.2119 161.381 23.9547C161.381 21.7561 160.897 19.7994 159.928 18.0846C158.959 16.3697 157.631 15.0432 155.943 14.1052C154.255 13.1671 152.384 12.6981 150.329 12.6981C148.303 12.6981 146.41 13.1158 144.649 13.9513C142.887 14.7867 141.566 15.9959 140.686 17.5789V1.96918H138.396V34.4638H140.642V30.2425C142.755 33.4964 145.984 35.1233 150.329 35.1233ZM149.977 33.2765C147.746 33.2765 145.801 32.7049 144.142 31.5617C142.484 30.4184 141.331 28.8501 140.686 26.8568V21.0966C141.273 19.0739 142.418 17.4836 144.12 16.3257C145.823 15.1678 147.775 14.5889 149.977 14.5889C151.65 14.5889 153.184 14.9773 154.578 15.7541C155.972 16.5309 157.073 17.6302 157.881 19.0519C158.688 20.4736 159.091 22.1079 159.091 23.9547C159.091 25.8015 158.688 27.4284 157.881 28.8355C157.073 30.2425 155.972 31.3345 154.578 32.1113C153.184 32.8881 151.65 33.2765 149.977 33.2765ZM169.395 34.4638V20.8767C170.746 17.1245 174.019 15.2484 179.215 15.2484V13.3577C174.4 13.3577 171.112 14.8527 169.351 17.8427V13.3577H167.105V34.4638H169.395ZM184.675 43.17C186.23 43.17 187.493 42.7376 188.461 41.8729C189.43 41.0081 190.311 39.6377 191.103 37.7616L201.143 13.3577H198.721L191.147 31.5177L183.178 13.3577H180.756L189.959 34.2879L188.638 37.4978C188.08 38.8755 187.478 39.8575 186.832 40.4438C186.186 41.0301 185.306 41.3232 184.19 41.3232C183.163 41.3232 182.297 41.1913 181.592 40.9275V42.8622C182.444 43.0674 183.471 43.17 184.675 43.17ZM210.038 35.1233C212.709 35.1233 214.713 34.625 216.048 33.6283C217.384 32.6316 218.052 31.2832 218.052 29.583C218.052 27.8828 217.523 26.549 216.467 25.5816C215.41 24.6143 213.59 23.7788 211.006 23.0753C209.157 22.5769 207.785 22.1372 206.889 21.7561C205.994 21.3751 205.37 20.9353 205.018 20.437C204.666 19.9387 204.49 19.2498 204.49 18.3704C204.49 17.0805 204.996 16.1278 206.009 15.5122C207.021 14.8967 208.467 14.5889 210.346 14.5889C212.929 14.5889 215.087 15.0579 216.819 15.9959V14.0172C215.146 13.1378 212.959 12.6981 210.258 12.6981C207.821 12.6981 205.877 13.1818 204.423 14.1491C202.97 15.1165 202.244 16.5236 202.244 18.3704C202.244 19.6016 202.508 20.5982 203.036 21.3604C203.565 22.1226 204.321 22.7455 205.304 23.2292C206.288 23.7128 207.645 24.1892 209.377 24.6582C211.139 25.1272 212.474 25.5816 213.384 26.0213C214.294 26.461 214.925 26.952 215.278 27.4944C215.63 28.0367 215.806 28.7329 215.806 29.583C215.806 32.0454 213.869 33.2765 209.994 33.2765C208.673 33.2765 207.33 33.0787 205.965 32.6829C204.6 32.2872 203.374 31.7522 202.288 31.078V33.0567C203.11 33.643 204.277 34.134 205.788 34.5297C207.3 34.9255 208.717 35.1233 210.038 35.1233ZM233.595 35.1233C235.797 35.1233 237.764 34.6616 239.496 33.7382C241.228 32.8148 242.578 31.5104 243.547 29.8248C244.516 28.1393 245 26.1825 245 23.9547C245 21.7268 244.508 19.7628 243.525 18.0626C242.541 16.3624 241.191 15.0432 239.474 14.1052C237.756 13.1671 235.797 12.6981 233.595 12.6981C231.394 12.6981 229.434 13.1671 227.717 14.1052C226 15.0432 224.657 16.3624 223.688 18.0626C222.719 19.7628 222.235 21.7268 222.235 23.9547C222.235 26.1825 222.719 28.1393 223.688 29.8248C224.657 31.5104 226 32.8148 227.717 33.7382C229.434 34.6616 231.394 35.1233 233.595 35.1233ZM233.595 33.2765C231.805 33.2765 230.219 32.8955 228.84 32.1333C227.46 31.3711 226.389 30.2865 225.625 28.8794C224.862 27.4724 224.481 25.8308 224.481 23.9547C224.481 22.0786 224.862 20.4297 225.625 19.0079C226.389 17.5862 227.46 16.4943 228.84 15.7321C230.219 14.9699 231.805 14.5889 233.595 14.5889C235.386 14.5889 236.971 14.9699 238.351 15.7321C239.731 16.4943 240.802 17.5862 241.565 19.0079C242.329 20.4297 242.71 22.0786 242.71 23.9547C242.71 25.8308 242.329 27.4724 241.565 28.8794C240.802 30.2865 239.731 31.3711 238.351 32.1333C236.971 32.8955 235.386 33.2765 233.595 33.2765ZM253.014 34.4638V19.3817C255.128 16.1865 257.946 14.5889 261.468 14.5889C263.641 14.5889 265.211 15.1238 266.18 16.1938C267.149 17.2638 267.633 18.7954 267.633 20.7888V34.4638H269.967V20.6129C269.967 18.2091 269.291 16.2891 267.941 14.8527C266.591 13.4163 264.536 12.6981 261.777 12.6981C260.074 12.6981 258.452 13.0352 256.911 13.7094C255.37 14.3837 254.056 15.4536 252.97 16.9193V13.3577H250.724V34.4638H253.014Z" fill="#130F3A"/>
</svg>
