<?xml version="1.0" encoding="UTF-8"?>
<svg width="32px" height="32px" viewBox="0 0 32 32" version="1.1" xmlns="http://www.w3.org/2000/svg" xmlns:xlink="http://www.w3.org/1999/xlink">
    <!-- Generator: Sketch 61.2 (89653) - https://sketch.com -->
    <title>linkedin_icon</title>
    <desc>Created with Sketch.</desc>
    <g id="Welcome" stroke="none" stroke-width="1" fill="none" fill-rule="evenodd">
        <g id="Desktop" transform="translate(-105.000000, -292.000000)" fill="#2B56A0">
            <g id="linkedin_icon" transform="translate(105.000000, 292.000000)">
                <path d="M27.8985333,0 L4.10146667,0 C1.84786667,0 0,1.84806667 0,4.1014 L0,27.8985333 C0,30.1518667 1.84786667,32 4.10146667,32 L27.8984667,32 C30.1523333,32 32,30.1518667 32,27.8986 L32,4.1014 C32,1.84806667 30.1523333,0 27.8985333,0 Z M11,15.4541333 L11,25.3333333 L6.66666667,25.3333333 L6.66666667,16.1912 L6.66666667,12.8666667 L11,12.8666667 L11,15.4541333 Z M8.82466667,11.0085333 C7.61913333,11.0085333 6.64093333,10.0310667 6.64093333,8.8248 C6.64093333,7.61833333 7.61913333,6.64206667 8.82466667,6.64206667 C10.0318667,6.64206667 11.0091333,7.6184 11.0091333,8.8248 C11.0091333,10.0310667 10.0319333,11.0085333 8.82466667,11.0085333 Z M25.3333333,18.5333333 L25.3333333,25.3333333 L21.6,25.3333333 L21.6,19.2778 C21.6,17.8278 21.443,15.9628667 19.4557333,15.9628667 C17.4382667,15.9628667 17.1333333,17.5414667 17.1333333,19.1732667 L17.1333333,25.3333333 L13.5333333,25.3333333 L13.5333333,15.2746667 L13.5333333,12.8666667 L17,12.8666667 L17,14.5333333 L17.0369333,14.5333333 C17.554,13.6 18.8207333,12.8653333 20.707,12.8653333 C23.8851333,12.8653333 24.9651333,14.3682 25.2606667,16.7194667 C25.3308,17.2712667 25.3578667,17.8666667 25.3578667,18.5333333 L25.3333333,18.5333333 Z" id="Shape"></path>
            </g>
        </g>
    </g>
</svg>