<?xml version="1.0" encoding="UTF-8"?>
<svg width="242px" height="69px" viewBox="0 0 242 69" version="1.1" xmlns="http://www.w3.org/2000/svg" xmlns:xlink="http://www.w3.org/1999/xlink">
    <!-- Generator: Sketch 61.2 (89653) - https://sketch.com -->
    <title>logo</title>
    <desc>Created with Sketch.</desc>
    <g id="Welcome" stroke="none" stroke-width="1" fill="none" fill-rule="evenodd">
        <g id="Desktop" transform="translate(-34.000000, -44.000000)">
            <g id="logo" transform="translate(32.000000, 33.000000)">
                <path d="M163.091573,31.8580374 C193.180613,31.8580374 244,-2.43485166 244,16.9219875 C244,36.2788266 231.982431,81.9219875 202.400724,78.9219875 C187.114655,77.3717657 158.7427,50.0346562 120.58949,52 C81.7634985,54 63.9087506,43.0369537 82.2250371,31.9219875 C120.1266,8.92198747 133.002532,31.8580374 163.091573,31.8580374 Z M172.146,48.622 L170.43,48.622 L170.43,58.5 C170.43,61.25 170.43,61.25 171.981,62.79 C173.532,64.33 173.532,64.33 176.568,64.33 C179.604,64.33 179.604,64.33 181.155,62.79 C182.614765,61.3405882 182.614765,61.3405882 182.700633,58.8193426 L182.706,58.5 L182.706,48.622 L180.99,48.622 L180.99,58.632 C180.99,60.722 180.99,60.722 179.824,61.756 C178.658,62.79 178.658,62.79 176.568,62.79 C174.478,62.79 174.478,62.79 173.312,61.756 C172.223733,60.7909333 172.223733,60.7909333 172.151182,58.9059733 L172.146,58.632 L172.146,48.622 Z M212.89,48.622 L211.174,48.622 L211.174,58.5 C211.174,61.25 211.174,61.25 212.725,62.79 C214.276,64.33 214.276,64.33 217.312,64.33 C220.348,64.33 220.348,64.33 221.899,62.79 C223.358765,61.3405882 223.358765,61.3405882 223.444633,58.8193426 L223.45,58.5 L223.45,48.622 L221.734,48.622 L221.734,58.632 C221.734,60.722 221.734,60.722 220.568,61.756 C219.402,62.79 219.402,62.79 217.312,62.79 C215.222,62.79 215.222,62.79 214.056,61.756 C212.967733,60.7909333 212.967733,60.7909333 212.895182,58.9059733 L212.89,58.632 L212.89,48.622 Z M186.974,48.622 L185.016,48.622 L190.56,56.124 L184.73,64 L186.688,64 L191.528,57.444 L196.39,64 L198.348,64 L192.518,56.124 L198.062,48.622 L196.104,48.622 L191.528,54.804 L186.974,48.622 Z M208.644,48.292 L206.862,48.292 L200.592,64 L202.374,64 L208.644,48.292 Z M228.158,48.622 L226.442,48.622 L226.442,64 L228.158,64 L228.158,48.622 Z" id="Combined-Shape" fill-opacity="0.503551136" fill="#DF5C6E"></path>
                <text id="nicole-bryson" font-family="Prompt-ExtraLight, Prompt" font-size="37" font-weight="300" fill="#130F3A">
                    <tspan x="0" y="40">nicole bryson</tspan>
                </text>
            </g>
        </g>
    </g>
</svg>