<?xml version="1.0" encoding="UTF-8"?>
<svg width="271px" height="48px" viewBox="0 0 271 48" version="1.1" xmlns="http://www.w3.org/2000/svg" xmlns:xlink="http://www.w3.org/1999/xlink">
    <!-- Generator: Sketch 61.2 (89653) - https://sketch.com -->
    <title>Group</title>
    <desc>Created with Sketch.</desc>
    <g id="Page-1" stroke="none" stroke-width="1" fill="none" fill-rule="evenodd">
        <g id="Artboard" transform="translate(-11.000000, -30.000000)" fill="#E3644B">
            <g id="Group" transform="translate(4.000000, 17.000000)">
                <text id="Nicole-Bryson" font-family="Prompt-Thin, Prompt" font-size="36" font-weight="300" letter-spacing="-0.114285857">
                    <tspan x="5.71885807" y="39">NICOLE BRYSON</tspan>
                </text>
                <path d="M278,45 L278,61 L8,61 L8,45 L278,45 Z M226.034857,46.418 L222.848857,46.418 L222.848857,53.726 C222.848857,56.228 222.848857,56.228 224.288857,57.749 C225.728857,59.27 225.728857,59.27 228.572857,59.27 C231.416857,59.27 231.416857,59.27 232.847857,57.758 C234.18942,56.3405 234.18942,56.3405 234.273267,54.0370625 L234.278857,53.726 L234.278857,46.418 L231.092857,46.418 L231.092857,53.762 C231.092857,55.022 231.092857,55.022 230.426857,55.67 C229.760857,56.318 229.760857,56.318 228.572857,56.318 C227.384857,56.318 227.384857,56.318 226.709857,55.67 C226.096221,55.0809091 226.096221,55.0809091 226.040436,53.9860331 L226.034857,53.762 L226.034857,46.418 Z M261.215429,46.418 L258.029429,46.418 L258.029429,53.726 C258.029429,56.228 258.029429,56.228 259.469429,57.749 C260.909429,59.27 260.909429,59.27 263.753429,59.27 C266.597429,59.27 266.597429,59.27 268.028429,57.758 C269.369991,56.3405 269.369991,56.3405 269.453839,54.0370625 L269.459429,53.726 L269.459429,46.418 L266.273429,46.418 L266.273429,53.762 C266.273429,55.022 266.273429,55.022 265.607429,55.67 C264.941429,56.318 264.941429,56.318 263.753429,56.318 C262.565429,56.318 262.565429,56.318 261.890429,55.67 C261.276792,55.0809091 261.276792,55.0809091 261.221007,53.9860331 L261.215429,53.762 L261.215429,46.418 Z M238.613714,46.418 L234.959714,46.418 L239.495714,52.7 L234.941714,59 L238.595714,59 L241.331714,55.238 L244.049714,59 L247.703714,59 L243.149714,52.7 L247.703714,46.418 L244.049714,46.418 L241.331714,50.18 L238.613714,46.418 Z M256.916571,46.148 L253.676571,46.148 L248.546571,59 L251.786571,59 L256.916571,46.148 Z M274.118286,46.418 L270.932286,46.418 L270.932286,59 L274.118286,59 L274.118286,46.418 Z" id="Combined-Shape"></path>
            </g>
        </g>
    </g>
</svg>