<?xml version="1.0" encoding="UTF-8"?>
<svg width="242px" height="69px" viewBox="0 0 242 69" version="1.1" xmlns="http://www.w3.org/2000/svg" xmlns:xlink="http://www.w3.org/1999/xlink">
    <!-- Generator: Sketch 61.2 (89653) - https://sketch.com -->
    <title>logo</title>
    <desc>Created with Sketch.</desc>
    <g id="Welcome" stroke="none" stroke-width="1" fill="none" fill-rule="evenodd">
        <g id="Desktop" transform="translate(-34.000000, -44.000000)">
            <g id="logo" transform="translate(32.000000, 33.000000)">
                <path d="M163.091573,31.8580374 C193.180613,31.8580374 244,-2.43485166 244,16.9219875 C244,36.2788266 231.982431,81.9219875 202.400724,78.9219875 C187.114655,77.3717657 158.7427,50.0346562 120.58949,52 C81.7634985,54 63.9087506,43.0369537 82.2250371,31.9219875 C120.1266,8.92198747 133.002532,31.8580374 163.091573,31.8580374 Z M172.146,48.622 L170.43,48.622 L170.43,58.5 C170.43,61.25 170.43,61.25 171.981,62.79 C173.532,64.33 173.532,64.33 176.568,64.33 C179.604,64.33 179.604,64.33 181.155,62.79 C182.614765,61.3405882 182.614765,61.3405882 182.700633,58.8193426 L182.706,58.5 L182.706,48.622 L180.99,48.622 L180.99,58.632 C180.99,60.722 180.99,60.722 179.824,61.756 C178.658,62.79 178.658,62.79 176.568,62.79 C174.478,62.79 174.478,62.79 173.312,61.756 C172.223733,60.7909333 172.223733,60.7909333 172.151182,58.9059733 L172.146,58.632 L172.146,48.622 Z M212.89,48.622 L211.174,48.622 L211.174,58.5 C211.174,61.25 211.174,61.25 212.725,62.79 C214.276,64.33 214.276,64.33 217.312,64.33 C220.348,64.33 220.348,64.33 221.899,62.79 C223.358765,61.3405882 223.358765,61.3405882 223.444633,58.8193426 L223.45,58.5 L223.45,48.622 L221.734,48.622 L221.734,58.632 C221.734,60.722 221.734,60.722 220.568,61.756 C219.402,62.79 219.402,62.79 217.312,62.79 C215.222,62.79 215.222,62.79 214.056,61.756 C212.967733,60.7909333 212.967733,60.7909333 212.895182,58.9059733 L212.89,58.632 L212.89,48.622 Z M186.974,48.622 L185.016,48.622 L190.56,56.124 L184.73,64 L186.688,64 L191.528,57.444 L196.39,64 L198.348,64 L192.518,56.124 L198.062,48.622 L196.104,48.622 L191.528,54.804 L186.974,48.622 Z M208.644,48.292 L206.862,48.292 L200.592,64 L202.374,64 L208.644,48.292 Z M228.158,48.622 L226.442,48.622 L226.442,64 L228.158,64 L228.158,48.622 Z" id="Combined-Shape" fill-opacity="0.503551136" fill="#DF5C6E"></path>
                <path d="M4.699,40 L4.699,27.309 C6.475,24.6203333 8.843,23.276 11.803,23.276 C13.6283333,23.276 14.948,23.7261667 15.762,24.6265 C16.576,25.5268333 16.983,26.8156667 16.983,28.493 L16.983,28.493 L16.983,40 L18.944,40 L18.944,28.345 C18.944,26.3223333 18.3766667,24.7066667 17.242,23.498 C16.1073333,22.2893333 14.3806667,21.685 12.062,21.685 C10.6313333,21.685 9.2685,21.9686667 7.9735,22.536 C6.6785,23.1033333 5.57466667,24.0036667 4.662,25.237 L4.662,25.237 L4.662,22.24 L2.775,22.24 L2.775,40 L4.699,40 Z M25.678,18.022 C26.048,18.022 26.3686667,17.8925 26.64,17.6335 C26.9113333,17.3745 27.047,17.0476667 27.047,16.653 C27.047,16.283 26.9113333,15.9623333 26.64,15.691 C26.3686667,15.4196667 26.048,15.284 25.678,15.284 C25.2833333,15.284 24.9565,15.4196667 24.6975,15.691 C24.4385,15.9623333 24.309,16.283 24.309,16.653 C24.309,17.0476667 24.4385,17.3745 24.6975,17.6335 C24.9565,17.8925 25.2833333,18.022 25.678,18.022 Z M26.64,40 L26.64,22.24 L24.716,22.24 L24.716,40 L26.64,40 Z M41.366,40.555 C42.7966667,40.555 44.0485,40.4193333 45.1215,40.148 C46.1945,39.8766667 47.1503333,39.445 47.989,38.853 L47.989,38.853 L47.989,37.188 C47.0516667,37.8046667 46.0711667,38.261 45.0475,38.557 C44.0238333,38.853 42.846,39.001 41.514,39.001 C40.0586667,39.001 38.739,38.6926667 37.555,38.076 C36.371,37.4593333 35.4398333,36.559 34.7615,35.375 C34.0831667,34.191 33.744,32.785 33.744,31.157 C33.744,29.529 34.0893333,28.123 34.78,26.939 C35.4706667,25.755 36.4141667,24.8485 37.6105,24.2195 C38.8068333,23.5905 40.145,23.276 41.625,23.276 C42.883,23.276 44.0053333,23.4055 44.992,23.6645 C45.9786667,23.9235 46.8913333,24.349 47.73,24.941 L47.73,24.941 L47.73,23.276 C46.916,22.7086667 46.0095,22.3016667 45.0105,22.055 C44.0115,21.8083333 42.846,21.685 41.514,21.685 C39.6886667,21.685 38.0421667,22.0735 36.5745,22.8505 C35.1068333,23.6275 33.9536667,24.7375 33.115,26.1805 C32.2763333,27.6235 31.857,29.2823333 31.857,31.157 C31.857,33.0563333 32.2763333,34.7213333 33.115,36.152 C33.9536667,37.5826667 35.0945,38.6741667 36.5375,39.4265 C37.9805,40.1788333 39.59,40.555 41.366,40.555 Z M60.31,40.555 C62.16,40.555 63.8126667,40.1665 65.268,39.3895 C66.7233333,38.6125 67.858,37.5148333 68.672,36.0965 C69.486,34.6781667 69.893,33.0316667 69.893,31.157 C69.893,29.2823333 69.4798333,27.6296667 68.6535,26.199 C67.8271667,24.7683333 66.6925,23.6583333 65.2495,22.869 C63.8065,22.0796667 62.16,21.685 60.31,21.685 C58.46,21.685 56.8135,22.0796667 55.3705,22.869 C53.9275,23.6583333 52.799,24.7683333 51.985,26.199 C51.171,27.6296667 50.764,29.2823333 50.764,31.157 C50.764,33.0316667 51.171,34.6781667 51.985,36.0965 C52.799,37.5148333 53.9275,38.6125 55.3705,39.3895 C56.8135,40.1665 58.46,40.555 60.31,40.555 Z M60.31,39.001 C58.8053333,39.001 57.4733333,38.6803333 56.314,38.039 C55.1546667,37.3976667 54.2543333,36.485 53.613,35.301 C52.9716667,34.117 52.651,32.7356667 52.651,31.157 C52.651,29.5783333 52.9716667,28.1908333 53.613,26.9945 C54.2543333,25.7981667 55.1546667,24.8793333 56.314,24.238 C57.4733333,23.5966667 58.8053333,23.276 60.31,23.276 C61.8146667,23.276 63.1466667,23.5966667 64.306,24.238 C65.4653333,24.8793333 66.3656667,25.7981667 67.007,26.9945 C67.6483333,28.1908333 67.969,29.5783333 67.969,31.157 C67.969,32.7356667 67.6483333,34.117 67.007,35.301 C66.3656667,36.485 65.4653333,37.3976667 64.306,38.039 C63.1466667,38.6803333 61.8146667,39.001 60.31,39.001 Z M76.627,40 L76.627,12.657 L74.703,12.657 L74.703,40 L76.627,40 Z M91.501,40.555 C92.6356667,40.555 93.8258333,40.4563333 95.0715,40.259 C96.3171667,40.0616667 97.2976667,39.815 98.013,39.519 L98.013,39.519 L98.013,37.854 C97.1496667,38.224 96.163,38.5076667 95.053,38.705 C93.943,38.9023333 92.8083333,39.001 91.649,39.001 C89.0836667,39.001 87.0486667,38.3966667 85.544,37.188 C84.0393333,35.9793333 83.2623333,34.2033333 83.213,31.86 L83.213,31.86 L99.826,31.86 L99.826,30.639 C99.826,28.9123333 99.4745,27.3706667 98.7715,26.014 C98.0685,24.6573333 97.0263333,23.5966667 95.645,22.832 C94.2636667,22.0673333 92.5863333,21.685 90.613,21.685 C87.6776667,21.685 85.4145,22.536 83.8235,24.238 C82.2325,25.94 81.437,28.2463333 81.437,31.157 C81.437,34.1416667 82.3188333,36.4541667 84.0825,38.0945 C85.8461667,39.7348333 88.319,40.555 91.501,40.555 Z M98.05,30.417 L83.213,30.417 C83.2376667,28.3203333 83.8728333,26.606 85.1185,25.274 C86.3641667,23.942 88.1956667,23.276 90.613,23.276 C93.0796667,23.276 94.9296667,23.9173333 96.163,25.2 C97.3963333,26.4826667 98.0253333,28.2216667 98.05,30.417 L98.05,30.417 Z M129.093,40.555 C130.819667,40.555 132.392167,40.1726667 133.8105,39.408 C135.228833,38.6433333 136.345,37.5518333 137.159,36.1335 C137.973,34.7151667 138.38,33.0563333 138.38,31.157 C138.38,29.307 137.973,27.6605 137.159,26.2175 C136.345,24.7745 135.228833,23.6583333 133.8105,22.869 C132.392167,22.0796667 130.819667,21.685 129.093,21.685 C127.391,21.685 125.8,22.0365 124.32,22.7395 C122.84,23.4425 121.73,24.46 120.99,25.792 L120.99,25.792 L120.99,12.657 L119.066,12.657 L119.066,40 L120.953,40 L120.953,36.448 C122.729,39.186 125.442333,40.555 129.093,40.555 Z M128.797,39.001 C126.922333,39.001 125.288167,38.52 123.8945,37.558 C122.500833,36.596 121.532667,35.2763333 120.99,33.599 L120.99,33.599 L120.99,28.752 C121.483333,27.05 122.445333,25.7118333 123.876,24.7375 C125.306667,23.7631667 126.947,23.276 128.797,23.276 C130.203,23.276 131.491833,23.6028333 132.6635,24.2565 C133.835167,24.9101667 134.760167,25.8351667 135.4385,27.0315 C136.116833,28.2278333 136.456,29.603 136.456,31.157 C136.456,32.711 136.116833,34.08 135.4385,35.264 C134.760167,36.448 133.835167,37.3668333 132.6635,38.0205 C131.491833,38.6741667 130.203,39.001 128.797,39.001 Z M145.114,40 L145.114,28.567 C146.248667,25.4096667 148.999,23.831 153.365,23.831 L153.365,23.831 L153.365,22.24 C149.319667,22.24 146.557,23.498 145.077,26.014 L145.077,26.014 L145.077,22.24 L143.19,22.24 L143.19,40 L145.114,40 Z M157.953,47.326 C159.260333,47.326 160.321,46.9621667 161.135,46.2345 C161.949,45.5068333 162.689,44.3536667 163.355,42.775 L163.355,42.775 L171.791,22.24 L169.756,22.24 L163.392,37.521 L156.695,22.24 L154.66,22.24 L162.393,39.852 L161.283,42.553 C160.814333,43.7123333 160.308667,44.5386667 159.766,45.032 C159.223333,45.5253333 158.483333,45.772 157.546,45.772 C156.682667,45.772 155.955,45.661 155.363,45.439 L155.363,45.439 L155.363,47.067 C156.078333,47.2396667 156.941667,47.326 157.953,47.326 Z M179.265,40.555 C181.509667,40.555 183.193167,40.1356667 184.3155,39.297 C185.437833,38.4583333 185.999,37.3236667 185.999,35.893 C185.999,34.4623333 185.555,33.34 184.667,32.526 C183.779,31.712 182.249667,31.009 180.079,30.417 C178.525,29.9976667 177.371833,29.6276667 176.6195,29.307 C175.867167,28.9863333 175.343,28.6163333 175.047,28.197 C174.751,27.7776667 174.603,27.198 174.603,26.458 C174.603,25.3726667 175.0285,24.571 175.8795,24.053 C176.7305,23.535 177.945333,23.276 179.524,23.276 C181.694667,23.276 183.507667,23.6706667 184.963,24.46 L184.963,24.46 L184.963,22.795 C183.557,22.055 181.719333,21.685 179.45,21.685 C177.402667,21.685 175.7685,22.092 174.5475,22.906 C173.3265,23.72 172.716,24.904 172.716,26.458 C172.716,27.494 172.938,28.3326667 173.382,28.974 C173.826,29.6153333 174.461167,30.1395 175.2875,30.5465 C176.113833,30.9535 177.254667,31.3543333 178.71,31.749 C180.19,32.1436667 181.312333,32.526 182.077,32.896 C182.841667,33.266 183.372,33.6791667 183.668,34.1355 C183.964,34.5918333 184.112,35.1776667 184.112,35.893 C184.112,37.965 182.484,39.001 179.228,39.001 C178.118,39.001 176.9895,38.8345 175.8425,38.5015 C174.6955,38.1685 173.665667,37.7183333 172.753,37.151 L172.753,37.151 L172.753,38.816 C173.443667,39.3093333 174.424167,39.7225 175.6945,40.0555 C176.964833,40.3885 178.155,40.555 179.265,40.555 Z M199.06,40.555 C200.91,40.555 202.562667,40.1665 204.018,39.3895 C205.473333,38.6125 206.608,37.5148333 207.422,36.0965 C208.236,34.6781667 208.643,33.0316667 208.643,31.157 C208.643,29.2823333 208.229833,27.6296667 207.4035,26.199 C206.577167,24.7683333 205.4425,23.6583333 203.9995,22.869 C202.5565,22.0796667 200.91,21.685 199.06,21.685 C197.21,21.685 195.5635,22.0796667 194.1205,22.869 C192.6775,23.6583333 191.549,24.7683333 190.735,26.199 C189.921,27.6296667 189.514,29.2823333 189.514,31.157 C189.514,33.0316667 189.921,34.6781667 190.735,36.0965 C191.549,37.5148333 192.6775,38.6125 194.1205,39.3895 C195.5635,40.1665 197.21,40.555 199.06,40.555 Z M199.06,39.001 C197.555333,39.001 196.223333,38.6803333 195.064,38.039 C193.904667,37.3976667 193.004333,36.485 192.363,35.301 C191.721667,34.117 191.401,32.7356667 191.401,31.157 C191.401,29.5783333 191.721667,28.1908333 192.363,26.9945 C193.004333,25.7981667 193.904667,24.8793333 195.064,24.238 C196.223333,23.5966667 197.555333,23.276 199.06,23.276 C200.564667,23.276 201.896667,23.5966667 203.056,24.238 C204.215333,24.8793333 205.115667,25.7981667 205.757,26.9945 C206.398333,28.1908333 206.719,29.5783333 206.719,31.157 C206.719,32.7356667 206.398333,34.117 205.757,35.301 C205.115667,36.485 204.215333,37.3976667 203.056,38.039 C201.896667,38.6803333 200.564667,39.001 199.06,39.001 Z M215.377,40 L215.377,27.309 C217.153,24.6203333 219.521,23.276 222.481,23.276 C224.306333,23.276 225.626,23.7261667 226.44,24.6265 C227.254,25.5268333 227.661,26.8156667 227.661,28.493 L227.661,28.493 L227.661,40 L229.622,40 L229.622,28.345 C229.622,26.3223333 229.054667,24.7066667 227.92,23.498 C226.785333,22.2893333 225.058667,21.685 222.74,21.685 C221.309333,21.685 219.9465,21.9686667 218.6515,22.536 C217.3565,23.1033333 216.252667,24.0036667 215.34,25.237 L215.34,25.237 L215.34,22.24 L213.453,22.24 L213.453,40 L215.377,40 Z" id="nicolebryson" fill="#130F3A" fill-rule="nonzero"></path>
            </g>
        </g>
    </g>
</svg>