<?xml version="1.0" encoding="UTF-8"?>
<svg width="124px" height="83px" viewBox="0 0 124 83" version="1.1" xmlns="http://www.w3.org/2000/svg" xmlns:xlink="http://www.w3.org/1999/xlink">
    <!-- Generator: Sketch 61.2 (89653) - https://sketch.com -->
    <title>resume hover</title>
    <desc>Created with Sketch.</desc>
    <g id="Welcome" stroke="none" stroke-width="1" fill="none" fill-rule="evenodd">
        <g id="Desktop" transform="translate(-459.000000, -709.000000)">
            <g id="resume-hover" transform="translate(456.000000, 692.000000)">
                <path d="M69,94 C79.694074,102.911728 97,89.9978608 97,70 C97,52 119,66 119,46 C119,25.5654643 88,-7 69,25 C59.1827878,41.5342522 45.6930448,32.8730577 33.6602694,38.3417157 C28.4771973,40.6973192 30.2098665,52.7227239 26,58 C21.068034,64.1824635 10.8251804,67.5244587 9,73 C2,94 51,79 69,94 Z" id="Oval" fill-opacity="0.673978365" fill="#DF5C6E" transform="translate(63.660397, 54.215521) rotate(13.000000) translate(-63.660397, -54.215521) "></path>
                <rect id="Background" stroke="#130F3A" stroke-width="3" x="5" y="36" width="120" height="44" rx="15"></rect>
                <path d="M20.696,63 L23.864,55.32 L21.832,55.32 L19.752,60.632 L17.672,55.32 L15.64,55.32 L18.808,63 L20.696,63 Z M26.6,53.976 C26.92,53.976 27.192,53.8693333 27.416,53.656 C27.64,53.4426667 27.752,53.176 27.752,52.856 C27.752,52.536 27.64,52.2666667 27.416,52.048 C27.192,51.8293333 26.92,51.72 26.6,51.72 C26.28,51.72 26.0106667,51.8293333 25.792,52.048 C25.5733333,52.2666667 25.464,52.536 25.464,52.856 C25.464,53.176 25.5733333,53.4426667 25.792,53.656 C26.0106667,53.8693333 26.28,53.976 26.6,53.976 Z M27.624,63 L27.624,55.32 L25.576,55.32 L25.576,63 L27.624,63 Z M33.992,63.24 C34.5573333,63.24 35.1253333,63.192 35.696,63.096 C36.2666667,63 36.7333333,62.8773333 37.096,62.728 L37.096,62.728 L37.096,61.176 C36.712,61.3253333 36.264,61.4426667 35.752,61.528 C35.24,61.6133333 34.7386667,61.656 34.248,61.656 C32.4026667,61.656 31.4106667,61.0853333 31.272,59.944 L31.272,59.944 L37.816,59.944 L37.816,59.016 C37.816,58.2586667 37.656,57.584 37.336,56.992 C37.016,56.4 36.5386667,55.9333333 35.904,55.592 C35.2693333,55.2506667 34.504,55.08 33.608,55.08 C32.2426667,55.08 31.192,55.448 30.456,56.184 C29.72,56.92 29.352,57.9173333 29.352,59.176 C29.352,60.456 29.768,61.4533333 30.6,62.168 C31.432,62.8826667 32.5626667,63.24 33.992,63.24 Z M35.912,58.568 L31.272,58.568 C31.2933333,57.9813333 31.5066667,57.5173333 31.912,57.176 C32.3173333,56.8346667 32.872,56.664 33.576,56.664 C34.2906667,56.664 34.8533333,56.8293333 35.264,57.16 C35.6746667,57.4906667 35.8906667,57.96 35.912,58.568 L35.912,58.568 Z M42.984,63 L44.616,57.784 L46.248,63 L48.104,63 L50.616,55.32 L48.6,55.32 L47.032,60.52 L45.496,55.32 L43.736,55.32 L42.2,60.52 L40.632,55.32 L38.616,55.32 L41.128,63 L42.984,63 Z M59.992,63 L59.992,58.344 C60.216,57.832 60.6133333,57.456 61.184,57.216 C61.7546667,56.976 62.4293333,56.856 63.208,56.856 L63.208,56.856 L63.208,55.32 C62.472,55.32 61.8186667,55.4213333 61.248,55.624 C60.6773333,55.8266667 60.2373333,56.136 59.928,56.552 L59.928,56.552 L59.928,55.32 L57.976,55.32 L57.976,63 L59.992,63 Z M68.328,63.24 C68.8933333,63.24 69.4613333,63.192 70.032,63.096 C70.6026667,63 71.0693333,62.8773333 71.432,62.728 L71.432,62.728 L71.432,61.176 C71.048,61.3253333 70.6,61.4426667 70.088,61.528 C69.576,61.6133333 69.0746667,61.656 68.584,61.656 C66.7386667,61.656 65.7466667,61.0853333 65.608,59.944 L65.608,59.944 L72.152,59.944 L72.152,59.016 C72.152,58.2586667 71.992,57.584 71.672,56.992 C71.352,56.4 70.8746667,55.9333333 70.24,55.592 C69.6053333,55.2506667 68.84,55.08 67.944,55.08 C66.5786667,55.08 65.528,55.448 64.792,56.184 C64.056,56.92 63.688,57.9173333 63.688,59.176 C63.688,60.456 64.104,61.4533333 64.936,62.168 C65.768,62.8826667 66.8986667,63.24 68.328,63.24 Z M70.248,58.568 L65.608,58.568 C65.6293333,57.9813333 65.8426667,57.5173333 66.248,57.176 C66.6533333,56.8346667 67.208,56.664 67.912,56.664 C68.6266667,56.664 69.1893333,56.8293333 69.6,57.16 C70.0106667,57.4906667 70.2266667,57.96 70.248,58.568 L70.248,58.568 Z M76.744,63.24 C77.8426667,63.24 78.6826667,63.0346667 79.264,62.624 C79.8453333,62.2133333 80.136,61.6666667 80.136,60.984 C80.136,60.536 80.056,60.1626667 79.896,59.864 C79.736,59.5653333 79.4693333,59.3093333 79.096,59.096 C78.7226667,58.8826667 78.2053333,58.6853333 77.544,58.504 C76.9253333,58.344 76.4986667,58.224 76.264,58.144 C76.0293333,58.064 75.84,57.968 75.696,57.856 C75.552,57.744 75.48,57.592 75.48,57.4 C75.48,57.112 75.6133333,56.9173333 75.88,56.816 C76.1466667,56.7146667 76.5413333,56.664 77.064,56.664 C77.544,56.664 78.0133333,56.7226667 78.472,56.84 C78.9306667,56.9573333 79.32,57.112 79.64,57.304 L79.64,57.304 L79.64,55.656 C79.3413333,55.4746667 78.928,55.3333333 78.4,55.232 C77.872,55.1306667 77.3413333,55.08 76.808,55.08 C75.7733333,55.08 74.952,55.2746667 74.344,55.664 C73.736,56.0533333 73.432,56.632 73.432,57.4 C73.432,57.8693333 73.5253333,58.2506667 73.712,58.544 C73.8986667,58.8373333 74.176,59.08 74.544,59.272 C74.912,59.464 75.416,59.6506667 76.056,59.832 C76.6213333,59.9813333 77.04,60.1066667 77.312,60.208 C77.584,60.3093333 77.7813333,60.4213333 77.904,60.544 C78.0266667,60.6666667 78.088,60.824 78.088,61.016 C78.088,61.2613333 77.9706667,61.4293333 77.736,61.52 C77.5013333,61.6106667 77.128,61.656 76.616,61.656 C76.104,61.656 75.56,61.5786667 74.984,61.424 C74.408,61.2693333 73.912,61.064 73.496,60.808 L73.496,60.808 L73.496,62.52 C73.848,62.744 74.3386667,62.92 74.968,63.048 C75.5973333,63.176 76.1893333,63.24 76.744,63.24 Z M84.744,63.24 C85.2986667,63.24 85.8266667,63.136 86.328,62.928 C86.8293333,62.72 87.2613333,62.3973333 87.624,61.96 L87.624,61.96 L87.624,63 L89.576,63 L89.576,55.32 L87.56,55.32 L87.56,60.344 C87.2826667,60.7813333 86.9413333,61.1093333 86.536,61.328 C86.1306667,61.5466667 85.6986667,61.656 85.24,61.656 C84.1946667,61.656 83.672,61.096 83.672,59.976 L83.672,59.976 L83.672,55.32 L81.656,55.32 L81.656,60.168 C81.656,61.096 81.912,61.84 82.424,62.4 C82.936,62.96 83.7093333,63.24 84.744,63.24 Z M93.448,63 L93.448,57.896 C94.024,57.0746667 94.6746667,56.664 95.4,56.664 C95.88,56.664 96.2106667,56.7733333 96.392,56.992 C96.5733333,57.2106667 96.664,57.5973333 96.664,58.152 L96.664,58.152 L96.664,63 L98.616,63 L98.616,58.376 C98.616,58.1626667 98.6053333,57.8853333 98.584,57.544 C98.8186667,57.224 99.0773333,56.9973333 99.36,56.864 C99.6426667,56.7306667 99.9546667,56.664 100.296,56.664 C100.776,56.664 101.125333,56.7813333 101.344,57.016 C101.562667,57.2506667 101.672,57.64 101.672,58.184 L101.672,58.184 L101.672,63 L103.608,63 L103.608,57.912 C103.608,56.984 103.4,56.28 102.984,55.8 C102.568,55.32 101.88,55.08 100.92,55.08 C100.44,55.08 99.9573333,55.1813333 99.472,55.384 C98.9866667,55.5866667 98.5733333,55.88 98.232,56.264 C98.0506667,55.8693333 97.7786667,55.5733333 97.416,55.376 C97.0533333,55.1786667 96.5733333,55.08 95.976,55.08 C95.5066667,55.08 95.0426667,55.1866667 94.584,55.4 C94.1253333,55.6133333 93.7253333,55.9226667 93.384,56.328 L93.384,56.328 L93.384,55.32 L91.496,55.32 L91.496,63 L93.448,63 Z M109.768,63.24 C110.333333,63.24 110.901333,63.192 111.472,63.096 C112.042667,63 112.509333,62.8773333 112.872,62.728 L112.872,62.728 L112.872,61.176 C112.488,61.3253333 112.04,61.4426667 111.528,61.528 C111.016,61.6133333 110.514667,61.656 110.024,61.656 C108.178667,61.656 107.186667,61.0853333 107.048,59.944 L107.048,59.944 L113.592,59.944 L113.592,59.016 C113.592,58.2586667 113.432,57.584 113.112,56.992 C112.792,56.4 112.314667,55.9333333 111.68,55.592 C111.045333,55.2506667 110.28,55.08 109.384,55.08 C108.018667,55.08 106.968,55.448 106.232,56.184 C105.496,56.92 105.128,57.9173333 105.128,59.176 C105.128,60.456 105.544,61.4533333 106.376,62.168 C107.208,62.8826667 108.338667,63.24 109.768,63.24 Z M111.688,58.568 L107.048,58.568 C107.069333,57.9813333 107.282667,57.5173333 107.688,57.176 C108.093333,56.8346667 108.648,56.664 109.352,56.664 C110.066667,56.664 110.629333,56.8293333 111.04,57.16 C111.450667,57.4906667 111.666667,57.96 111.688,58.568 L111.688,58.568 Z" id="viewresume" fill="#130F3A" fill-rule="nonzero"></path>
            </g>
        </g>
    </g>
</svg>