<?xml version="1.0" encoding="UTF-8"?>
<svg width="124px" height="48px" viewBox="0 0 124 48" version="1.1" xmlns="http://www.w3.org/2000/svg" xmlns:xlink="http://www.w3.org/1999/xlink">
    <!-- Generator: Sketch 61.2 (89653) - https://sketch.com -->
    <title>resume</title>
    <desc>Created with Sketch.</desc>
    <g id="Welcome" stroke="none" stroke-width="1" fill="none" fill-rule="evenodd">
        <g id="Desktop" transform="translate(-286.000000, -726.000000)">
            <g id="resume" transform="translate(288.000000, 728.000000)">
                <rect id="Background" stroke="#130F3A" stroke-width="3" x="0" y="0" width="120" height="44" rx="15"></rect>
                <path d="M15.696,27 L18.864,19.32 L16.832,19.32 L14.752,24.632 L12.672,19.32 L10.64,19.32 L13.808,27 L15.696,27 Z M21.6,17.976 C21.92,17.976 22.192,17.8693333 22.416,17.656 C22.64,17.4426667 22.752,17.176 22.752,16.856 C22.752,16.536 22.64,16.2666667 22.416,16.048 C22.192,15.8293333 21.92,15.72 21.6,15.72 C21.28,15.72 21.0106667,15.8293333 20.792,16.048 C20.5733333,16.2666667 20.464,16.536 20.464,16.856 C20.464,17.176 20.5733333,17.4426667 20.792,17.656 C21.0106667,17.8693333 21.28,17.976 21.6,17.976 Z M22.624,27 L22.624,19.32 L20.576,19.32 L20.576,27 L22.624,27 Z M28.992,27.24 C29.5573333,27.24 30.1253333,27.192 30.696,27.096 C31.2666667,27 31.7333333,26.8773333 32.096,26.728 L32.096,26.728 L32.096,25.176 C31.712,25.3253333 31.264,25.4426667 30.752,25.528 C30.24,25.6133333 29.7386667,25.656 29.248,25.656 C27.4026667,25.656 26.4106667,25.0853333 26.272,23.944 L26.272,23.944 L32.816,23.944 L32.816,23.016 C32.816,22.2586667 32.656,21.584 32.336,20.992 C32.016,20.4 31.5386667,19.9333333 30.904,19.592 C30.2693333,19.2506667 29.504,19.08 28.608,19.08 C27.2426667,19.08 26.192,19.448 25.456,20.184 C24.72,20.92 24.352,21.9173333 24.352,23.176 C24.352,24.456 24.768,25.4533333 25.6,26.168 C26.432,26.8826667 27.5626667,27.24 28.992,27.24 Z M30.912,22.568 L26.272,22.568 C26.2933333,21.9813333 26.5066667,21.5173333 26.912,21.176 C27.3173333,20.8346667 27.872,20.664 28.576,20.664 C29.2906667,20.664 29.8533333,20.8293333 30.264,21.16 C30.6746667,21.4906667 30.8906667,21.96 30.912,22.568 L30.912,22.568 Z M37.984,27 L39.616,21.784 L41.248,27 L43.104,27 L45.616,19.32 L43.6,19.32 L42.032,24.52 L40.496,19.32 L38.736,19.32 L37.2,24.52 L35.632,19.32 L33.616,19.32 L36.128,27 L37.984,27 Z M54.992,27 L54.992,22.344 C55.216,21.832 55.6133333,21.456 56.184,21.216 C56.7546667,20.976 57.4293333,20.856 58.208,20.856 L58.208,20.856 L58.208,19.32 C57.472,19.32 56.8186667,19.4213333 56.248,19.624 C55.6773333,19.8266667 55.2373333,20.136 54.928,20.552 L54.928,20.552 L54.928,19.32 L52.976,19.32 L52.976,27 L54.992,27 Z M63.328,27.24 C63.8933333,27.24 64.4613333,27.192 65.032,27.096 C65.6026667,27 66.0693333,26.8773333 66.432,26.728 L66.432,26.728 L66.432,25.176 C66.048,25.3253333 65.6,25.4426667 65.088,25.528 C64.576,25.6133333 64.0746667,25.656 63.584,25.656 C61.7386667,25.656 60.7466667,25.0853333 60.608,23.944 L60.608,23.944 L67.152,23.944 L67.152,23.016 C67.152,22.2586667 66.992,21.584 66.672,20.992 C66.352,20.4 65.8746667,19.9333333 65.24,19.592 C64.6053333,19.2506667 63.84,19.08 62.944,19.08 C61.5786667,19.08 60.528,19.448 59.792,20.184 C59.056,20.92 58.688,21.9173333 58.688,23.176 C58.688,24.456 59.104,25.4533333 59.936,26.168 C60.768,26.8826667 61.8986667,27.24 63.328,27.24 Z M65.248,22.568 L60.608,22.568 C60.6293333,21.9813333 60.8426667,21.5173333 61.248,21.176 C61.6533333,20.8346667 62.208,20.664 62.912,20.664 C63.6266667,20.664 64.1893333,20.8293333 64.6,21.16 C65.0106667,21.4906667 65.2266667,21.96 65.248,22.568 L65.248,22.568 Z M71.744,27.24 C72.8426667,27.24 73.6826667,27.0346667 74.264,26.624 C74.8453333,26.2133333 75.136,25.6666667 75.136,24.984 C75.136,24.536 75.056,24.1626667 74.896,23.864 C74.736,23.5653333 74.4693333,23.3093333 74.096,23.096 C73.7226667,22.8826667 73.2053333,22.6853333 72.544,22.504 C71.9253333,22.344 71.4986667,22.224 71.264,22.144 C71.0293333,22.064 70.84,21.968 70.696,21.856 C70.552,21.744 70.48,21.592 70.48,21.4 C70.48,21.112 70.6133333,20.9173333 70.88,20.816 C71.1466667,20.7146667 71.5413333,20.664 72.064,20.664 C72.544,20.664 73.0133333,20.7226667 73.472,20.84 C73.9306667,20.9573333 74.32,21.112 74.64,21.304 L74.64,21.304 L74.64,19.656 C74.3413333,19.4746667 73.928,19.3333333 73.4,19.232 C72.872,19.1306667 72.3413333,19.08 71.808,19.08 C70.7733333,19.08 69.952,19.2746667 69.344,19.664 C68.736,20.0533333 68.432,20.632 68.432,21.4 C68.432,21.8693333 68.5253333,22.2506667 68.712,22.544 C68.8986667,22.8373333 69.176,23.08 69.544,23.272 C69.912,23.464 70.416,23.6506667 71.056,23.832 C71.6213333,23.9813333 72.04,24.1066667 72.312,24.208 C72.584,24.3093333 72.7813333,24.4213333 72.904,24.544 C73.0266667,24.6666667 73.088,24.824 73.088,25.016 C73.088,25.2613333 72.9706667,25.4293333 72.736,25.52 C72.5013333,25.6106667 72.128,25.656 71.616,25.656 C71.104,25.656 70.56,25.5786667 69.984,25.424 C69.408,25.2693333 68.912,25.064 68.496,24.808 L68.496,24.808 L68.496,26.52 C68.848,26.744 69.3386667,26.92 69.968,27.048 C70.5973333,27.176 71.1893333,27.24 71.744,27.24 Z M79.744,27.24 C80.2986667,27.24 80.8266667,27.136 81.328,26.928 C81.8293333,26.72 82.2613333,26.3973333 82.624,25.96 L82.624,25.96 L82.624,27 L84.576,27 L84.576,19.32 L82.56,19.32 L82.56,24.344 C82.2826667,24.7813333 81.9413333,25.1093333 81.536,25.328 C81.1306667,25.5466667 80.6986667,25.656 80.24,25.656 C79.1946667,25.656 78.672,25.096 78.672,23.976 L78.672,23.976 L78.672,19.32 L76.656,19.32 L76.656,24.168 C76.656,25.096 76.912,25.84 77.424,26.4 C77.936,26.96 78.7093333,27.24 79.744,27.24 Z M88.448,27 L88.448,21.896 C89.024,21.0746667 89.6746667,20.664 90.4,20.664 C90.88,20.664 91.2106667,20.7733333 91.392,20.992 C91.5733333,21.2106667 91.664,21.5973333 91.664,22.152 L91.664,22.152 L91.664,27 L93.616,27 L93.616,22.376 C93.616,22.1626667 93.6053333,21.8853333 93.584,21.544 C93.8186667,21.224 94.0773333,20.9973333 94.36,20.864 C94.6426667,20.7306667 94.9546667,20.664 95.296,20.664 C95.776,20.664 96.1253333,20.7813333 96.344,21.016 C96.5626667,21.2506667 96.672,21.64 96.672,22.184 L96.672,22.184 L96.672,27 L98.608,27 L98.608,21.912 C98.608,20.984 98.4,20.28 97.984,19.8 C97.568,19.32 96.88,19.08 95.92,19.08 C95.44,19.08 94.9573333,19.1813333 94.472,19.384 C93.9866667,19.5866667 93.5733333,19.88 93.232,20.264 C93.0506667,19.8693333 92.7786667,19.5733333 92.416,19.376 C92.0533333,19.1786667 91.5733333,19.08 90.976,19.08 C90.5066667,19.08 90.0426667,19.1866667 89.584,19.4 C89.1253333,19.6133333 88.7253333,19.9226667 88.384,20.328 L88.384,20.328 L88.384,19.32 L86.496,19.32 L86.496,27 L88.448,27 Z M104.768,27.24 C105.333333,27.24 105.901333,27.192 106.472,27.096 C107.042667,27 107.509333,26.8773333 107.872,26.728 L107.872,26.728 L107.872,25.176 C107.488,25.3253333 107.04,25.4426667 106.528,25.528 C106.016,25.6133333 105.514667,25.656 105.024,25.656 C103.178667,25.656 102.186667,25.0853333 102.048,23.944 L102.048,23.944 L108.592,23.944 L108.592,23.016 C108.592,22.2586667 108.432,21.584 108.112,20.992 C107.792,20.4 107.314667,19.9333333 106.68,19.592 C106.045333,19.2506667 105.28,19.08 104.384,19.08 C103.018667,19.08 101.968,19.448 101.232,20.184 C100.496,20.92 100.128,21.9173333 100.128,23.176 C100.128,24.456 100.544,25.4533333 101.376,26.168 C102.208,26.8826667 103.338667,27.24 104.768,27.24 Z M106.688,22.568 L102.048,22.568 C102.069333,21.9813333 102.282667,21.5173333 102.688,21.176 C103.093333,20.8346667 103.648,20.664 104.352,20.664 C105.066667,20.664 105.629333,20.8293333 106.04,21.16 C106.450667,21.4906667 106.666667,21.96 106.688,22.568 L106.688,22.568 Z" id="viewresume" fill="#130F3A" fill-rule="nonzero"></path>
            </g>
        </g>
    </g>
</svg>