<?xml version="1.0" encoding="UTF-8"?>
<svg width="106px" height="78px" viewBox="0 0 106 78" version="1.1" xmlns="http://www.w3.org/2000/svg" xmlns:xlink="http://www.w3.org/1999/xlink">
    <!-- Generator: Sketch 61.2 (89653) - https://sketch.com -->
    <title>view page button hover</title>
    <desc>Created with Sketch.</desc>
    <g id="Welcome" stroke="none" stroke-width="1" fill="none" fill-rule="evenodd">
        <g id="Desktop" transform="translate(-456.000000, -505.000000)">
            <g id="view-page-button-hover" transform="translate(447.000000, 484.826940)">
                <g id="blob" opacity="0.504696801" transform="translate(60.868631, 59.000000) rotate(-50.000000) translate(-60.868631, -59.000000) translate(25.368631, 10.000000)" fill="#2B7E78" fill-rule="nonzero">
                    <path d="M48.2120428,5.34568734 C50.1959722,9.19619084 50.791151,14.9326552 53.5190539,19.6475575 C56.1973586,24.3624597 61.0083874,28.0557998 64.7778532,35.2067349 C68.5969173,42.4362516 71.4240167,53.0447817 70.7296414,63.3389849 C70.0352661,73.5546065 65.8690144,83.3773195 60.0660209,89.1137839 C54.2134292,94.8502482 46.773694,96.500464 39.0363694,97.1291177 C31.2990447,97.836353 23.3633271,97.6006079 19.5938613,89.9781826 C15.8243955,82.3557573 16.2707796,67.3466518 12.4517155,56.423795 C8.58305317,45.5009381 0.498540888,38.6643299 0.845728532,32.0634667 C1.24251441,25.5411853 10.0710002,19.3332307 16.5187707,15.5613089 C22.916943,11.7108054 26.9344001,10.217753 30.30708,7.70313846 C33.7293582,5.10994223 36.5068594,1.49518384 39.6315482,0.630785096 C42.7066387,-0.312195353 46.1785152,1.57376554 48.2120428,5.34568734 Z" id="Path"></path>
                </g>
                <rect id="Background" stroke="#130F3A" stroke-width="3" x="11" y="39.1730596" width="102" height="44" rx="15"></rect>
                <path d="M26.696,66 L29.864,58.32 L27.832,58.32 L25.752,63.632 L23.672,58.32 L21.64,58.32 L24.808,66 L26.696,66 Z M32.6,56.976 C32.92,56.976 33.192,56.8693333 33.416,56.656 C33.64,56.4426667 33.752,56.176 33.752,55.856 C33.752,55.536 33.64,55.2666667 33.416,55.048 C33.192,54.8293333 32.92,54.72 32.6,54.72 C32.28,54.72 32.0106667,54.8293333 31.792,55.048 C31.5733333,55.2666667 31.464,55.536 31.464,55.856 C31.464,56.176 31.5733333,56.4426667 31.792,56.656 C32.0106667,56.8693333 32.28,56.976 32.6,56.976 Z M33.624,66 L33.624,58.32 L31.576,58.32 L31.576,66 L33.624,66 Z M39.992,66.24 C40.5573333,66.24 41.1253333,66.192 41.696,66.096 C42.2666667,66 42.7333333,65.8773333 43.096,65.728 L43.096,65.728 L43.096,64.176 C42.712,64.3253333 42.264,64.4426667 41.752,64.528 C41.24,64.6133333 40.7386667,64.656 40.248,64.656 C38.4026667,64.656 37.4106667,64.0853333 37.272,62.944 L37.272,62.944 L43.816,62.944 L43.816,62.016 C43.816,61.2586667 43.656,60.584 43.336,59.992 C43.016,59.4 42.5386667,58.9333333 41.904,58.592 C41.2693333,58.2506667 40.504,58.08 39.608,58.08 C38.2426667,58.08 37.192,58.448 36.456,59.184 C35.72,59.92 35.352,60.9173333 35.352,62.176 C35.352,63.456 35.768,64.4533333 36.6,65.168 C37.432,65.8826667 38.5626667,66.24 39.992,66.24 Z M41.912,61.568 L37.272,61.568 C37.2933333,60.9813333 37.5066667,60.5173333 37.912,60.176 C38.3173333,59.8346667 38.872,59.664 39.576,59.664 C40.2906667,59.664 40.8533333,59.8293333 41.264,60.16 C41.6746667,60.4906667 41.8906667,60.96 41.912,61.568 L41.912,61.568 Z M48.984,66 L50.616,60.784 L52.248,66 L54.104,66 L56.616,58.32 L54.6,58.32 L53.032,63.52 L51.496,58.32 L49.736,58.32 L48.2,63.52 L46.632,58.32 L44.616,58.32 L47.128,66 L48.984,66 Z M65.992,69.504 L65.992,65.248 C66.3546667,65.5786667 66.7946667,65.8266667 67.312,65.992 C67.8293333,66.1573333 68.3813333,66.24 68.968,66.24 C69.7466667,66.24 70.4426667,66.0666667 71.056,65.72 C71.6693333,65.3733333 72.1493333,64.8906667 72.496,64.272 C72.8426667,63.6533333 73.016,62.944 73.016,62.144 C73.016,61.3333333 72.8426667,60.6213333 72.496,60.008 C72.1493333,59.3946667 71.6693333,58.92 71.056,58.584 C70.4426667,58.248 69.7466667,58.08 68.968,58.08 C68.3386667,58.08 67.7786667,58.176 67.288,58.368 C66.7973333,58.56 66.344,58.8533333 65.928,59.248 L65.928,59.248 L65.928,58.32 L63.976,58.32 L63.976,69.504 L65.992,69.504 Z M68.472,64.656 C67.896,64.656 67.3813333,64.4986667 66.928,64.184 C66.4746667,63.8693333 66.1626667,63.4506667 65.992,62.928 L65.992,62.928 L65.992,61.376 C66.1733333,60.8533333 66.488,60.4373333 66.936,60.128 C67.384,59.8186667 67.896,59.664 68.472,59.664 C69.1973333,59.664 69.7946667,59.8933333 70.264,60.352 C70.7333333,60.8106667 70.968,61.408 70.968,62.144 C70.968,62.88 70.7333333,63.4826667 70.264,63.952 C69.7946667,64.4213333 69.1973333,64.656 68.472,64.656 Z M77.032,66.24 C77.64,66.24 78.1546667,66.1546667 78.576,65.984 C78.9973333,65.8133333 79.3733333,65.568 79.704,65.248 L79.704,65.248 L79.704,66 L81.608,66 L81.608,61.312 C81.608,60.2986667 81.288,59.5066667 80.648,58.936 C80.008,58.3653333 79.0213333,58.08 77.688,58.08 C77.1866667,58.08 76.6666667,58.128 76.128,58.224 C75.5893333,58.32 75.16,58.4426667 74.84,58.592 L74.84,58.592 L74.84,60.176 C75.192,60.016 75.5973333,59.8906667 76.056,59.8 C76.5146667,59.7093333 76.9786667,59.664 77.448,59.664 C78.1946667,59.664 78.736,59.7866667 79.072,60.032 C79.408,60.2773333 79.576,60.672 79.576,61.216 L79.576,61.216 L79.576,61.424 C78.872,61.0293333 78.0346667,60.832 77.064,60.832 C76.0613333,60.832 75.2826667,61.072 74.728,61.552 C74.1733333,62.032 73.896,62.6986667 73.896,63.552 C73.896,64.3733333 74.1893333,65.0266667 74.776,65.512 C75.3626667,65.9973333 76.1146667,66.24 77.032,66.24 Z M77.528,64.768 C77.016,64.768 76.624,64.6666667 76.352,64.464 C76.08,64.2613333 75.944,63.9573333 75.944,63.552 C75.944,62.72 76.4826667,62.304 77.56,62.304 C78.3173333,62.304 78.9893333,62.512 79.576,62.928 L79.576,62.928 L79.576,63.776 C79.384,64.0853333 79.1066667,64.328 78.744,64.504 C78.3813333,64.68 77.976,64.768 77.528,64.768 Z M87.512,69.68 C89.0906667,69.68 90.2613333,69.32 91.024,68.6 C91.7866667,67.88 92.168,66.8586667 92.168,65.536 L92.168,65.536 L92.168,58.32 L90.216,58.32 L90.216,59.216 C89.7786667,58.8106667 89.3253333,58.52 88.856,58.344 C88.3866667,58.168 87.8266667,58.08 87.176,58.08 C86.3973333,58.08 85.7013333,58.248 85.088,58.584 C84.4746667,58.92 83.9946667,59.3946667 83.648,60.008 C83.3013333,60.6213333 83.128,61.3333333 83.128,62.144 C83.128,62.944 83.304,63.6533333 83.656,64.272 C84.008,64.8906667 84.4986667,65.3733333 85.128,65.72 C85.7573333,66.0666667 86.4613333,66.24 87.24,66.24 C87.816,66.24 88.3546667,66.1573333 88.856,65.992 C89.3573333,65.8266667 89.7893333,65.5786667 90.152,65.248 L90.152,65.248 L90.152,65.744 C90.152,66.5226667 89.9466667,67.1093333 89.536,67.504 C89.1253333,67.8986667 88.4506667,68.096 87.512,68.096 C86.4666667,68.096 85.528,67.9146667 84.696,67.552 L84.696,67.552 L84.696,69.152 C85.0373333,69.312 85.464,69.44 85.976,69.536 C86.488,69.632 87,69.68 87.512,69.68 Z M87.672,64.656 C86.9466667,64.656 86.3493333,64.4213333 85.88,63.952 C85.4106667,63.4826667 85.176,62.88 85.176,62.144 C85.176,61.408 85.4106667,60.8106667 85.88,60.352 C86.3493333,59.8933333 86.9466667,59.664 87.672,59.664 C88.248,59.664 88.76,59.8186667 89.208,60.128 C89.656,60.4373333 89.9706667,60.8533333 90.152,61.376 L90.152,61.376 L90.152,62.928 C89.9813333,63.4506667 89.6693333,63.8693333 89.216,64.184 C88.7626667,64.4986667 88.248,64.656 87.672,64.656 Z M98.408,66.24 C98.9733333,66.24 99.5413333,66.192 100.112,66.096 C100.682667,66 101.149333,65.8773333 101.512,65.728 L101.512,65.728 L101.512,64.176 C101.128,64.3253333 100.68,64.4426667 100.168,64.528 C99.656,64.6133333 99.1546667,64.656 98.664,64.656 C96.8186667,64.656 95.8266667,64.0853333 95.688,62.944 L95.688,62.944 L102.232,62.944 L102.232,62.016 C102.232,61.2586667 102.072,60.584 101.752,59.992 C101.432,59.4 100.954667,58.9333333 100.32,58.592 C99.6853333,58.2506667 98.92,58.08 98.024,58.08 C96.6586667,58.08 95.608,58.448 94.872,59.184 C94.136,59.92 93.768,60.9173333 93.768,62.176 C93.768,63.456 94.184,64.4533333 95.016,65.168 C95.848,65.8826667 96.9786667,66.24 98.408,66.24 Z M100.328,61.568 L95.688,61.568 C95.7093333,60.9813333 95.9226667,60.5173333 96.328,60.176 C96.7333333,59.8346667 97.288,59.664 97.992,59.664 C98.7066667,59.664 99.2693333,59.8293333 99.68,60.16 C100.090667,60.4906667 100.306667,60.96 100.328,61.568 L100.328,61.568 Z" id="viewpage" fill="#130F3A" fill-rule="nonzero"></path>
            </g>
        </g>
    </g>
</svg>