<?xml version="1.0" encoding="UTF-8"?>
<svg width="106px" height="48px" viewBox="0 0 106 48" version="1.1" xmlns="http://www.w3.org/2000/svg" xmlns:xlink="http://www.w3.org/1999/xlink">
    <!-- Generator: Sketch 61.2 (89653) - https://sketch.com -->
    <title>view page button clicked</title>
    <desc>Created with Sketch.</desc>
    <g id="Welcome" stroke="none" stroke-width="1" fill="none" fill-rule="evenodd">
        <g id="Desktop" transform="translate(-607.000000, -522.000000)">
            <g id="view-page-button-clicked" transform="translate(609.000000, 524.000000)">
                <rect id="Background" stroke="#130F3A" stroke-width="3" fill-opacity="0.5" fill="#2B7E78" x="0" y="0" width="102" height="44" rx="15"></rect>
                <path d="M15.696,27 L18.864,19.32 L16.832,19.32 L14.752,24.632 L12.672,19.32 L10.64,19.32 L13.808,27 L15.696,27 Z M21.6,17.976 C21.92,17.976 22.192,17.8693333 22.416,17.656 C22.64,17.4426667 22.752,17.176 22.752,16.856 C22.752,16.536 22.64,16.2666667 22.416,16.048 C22.192,15.8293333 21.92,15.72 21.6,15.72 C21.28,15.72 21.0106667,15.8293333 20.792,16.048 C20.5733333,16.2666667 20.464,16.536 20.464,16.856 C20.464,17.176 20.5733333,17.4426667 20.792,17.656 C21.0106667,17.8693333 21.28,17.976 21.6,17.976 Z M22.624,27 L22.624,19.32 L20.576,19.32 L20.576,27 L22.624,27 Z M28.992,27.24 C29.5573333,27.24 30.1253333,27.192 30.696,27.096 C31.2666667,27 31.7333333,26.8773333 32.096,26.728 L32.096,26.728 L32.096,25.176 C31.712,25.3253333 31.264,25.4426667 30.752,25.528 C30.24,25.6133333 29.7386667,25.656 29.248,25.656 C27.4026667,25.656 26.4106667,25.0853333 26.272,23.944 L26.272,23.944 L32.816,23.944 L32.816,23.016 C32.816,22.2586667 32.656,21.584 32.336,20.992 C32.016,20.4 31.5386667,19.9333333 30.904,19.592 C30.2693333,19.2506667 29.504,19.08 28.608,19.08 C27.2426667,19.08 26.192,19.448 25.456,20.184 C24.72,20.92 24.352,21.9173333 24.352,23.176 C24.352,24.456 24.768,25.4533333 25.6,26.168 C26.432,26.8826667 27.5626667,27.24 28.992,27.24 Z M30.912,22.568 L26.272,22.568 C26.2933333,21.9813333 26.5066667,21.5173333 26.912,21.176 C27.3173333,20.8346667 27.872,20.664 28.576,20.664 C29.2906667,20.664 29.8533333,20.8293333 30.264,21.16 C30.6746667,21.4906667 30.8906667,21.96 30.912,22.568 L30.912,22.568 Z M37.984,27 L39.616,21.784 L41.248,27 L43.104,27 L45.616,19.32 L43.6,19.32 L42.032,24.52 L40.496,19.32 L38.736,19.32 L37.2,24.52 L35.632,19.32 L33.616,19.32 L36.128,27 L37.984,27 Z M54.992,30.504 L54.992,26.248 C55.3546667,26.5786667 55.7946667,26.8266667 56.312,26.992 C56.8293333,27.1573333 57.3813333,27.24 57.968,27.24 C58.7466667,27.24 59.4426667,27.0666667 60.056,26.72 C60.6693333,26.3733333 61.1493333,25.8906667 61.496,25.272 C61.8426667,24.6533333 62.016,23.944 62.016,23.144 C62.016,22.3333333 61.8426667,21.6213333 61.496,21.008 C61.1493333,20.3946667 60.6693333,19.92 60.056,19.584 C59.4426667,19.248 58.7466667,19.08 57.968,19.08 C57.3386667,19.08 56.7786667,19.176 56.288,19.368 C55.7973333,19.56 55.344,19.8533333 54.928,20.248 L54.928,20.248 L54.928,19.32 L52.976,19.32 L52.976,30.504 L54.992,30.504 Z M57.472,25.656 C56.896,25.656 56.3813333,25.4986667 55.928,25.184 C55.4746667,24.8693333 55.1626667,24.4506667 54.992,23.928 L54.992,23.928 L54.992,22.376 C55.1733333,21.8533333 55.488,21.4373333 55.936,21.128 C56.384,20.8186667 56.896,20.664 57.472,20.664 C58.1973333,20.664 58.7946667,20.8933333 59.264,21.352 C59.7333333,21.8106667 59.968,22.408 59.968,23.144 C59.968,23.88 59.7333333,24.4826667 59.264,24.952 C58.7946667,25.4213333 58.1973333,25.656 57.472,25.656 Z M66.032,27.24 C66.64,27.24 67.1546667,27.1546667 67.576,26.984 C67.9973333,26.8133333 68.3733333,26.568 68.704,26.248 L68.704,26.248 L68.704,27 L70.608,27 L70.608,22.312 C70.608,21.2986667 70.288,20.5066667 69.648,19.936 C69.008,19.3653333 68.0213333,19.08 66.688,19.08 C66.1866667,19.08 65.6666667,19.128 65.128,19.224 C64.5893333,19.32 64.16,19.4426667 63.84,19.592 L63.84,19.592 L63.84,21.176 C64.192,21.016 64.5973333,20.8906667 65.056,20.8 C65.5146667,20.7093333 65.9786667,20.664 66.448,20.664 C67.1946667,20.664 67.736,20.7866667 68.072,21.032 C68.408,21.2773333 68.576,21.672 68.576,22.216 L68.576,22.216 L68.576,22.424 C67.872,22.0293333 67.0346667,21.832 66.064,21.832 C65.0613333,21.832 64.2826667,22.072 63.728,22.552 C63.1733333,23.032 62.896,23.6986667 62.896,24.552 C62.896,25.3733333 63.1893333,26.0266667 63.776,26.512 C64.3626667,26.9973333 65.1146667,27.24 66.032,27.24 Z M66.528,25.768 C66.016,25.768 65.624,25.6666667 65.352,25.464 C65.08,25.2613333 64.944,24.9573333 64.944,24.552 C64.944,23.72 65.4826667,23.304 66.56,23.304 C67.3173333,23.304 67.9893333,23.512 68.576,23.928 L68.576,23.928 L68.576,24.776 C68.384,25.0853333 68.1066667,25.328 67.744,25.504 C67.3813333,25.68 66.976,25.768 66.528,25.768 Z M76.512,30.68 C78.0906667,30.68 79.2613333,30.32 80.024,29.6 C80.7866667,28.88 81.168,27.8586667 81.168,26.536 L81.168,26.536 L81.168,19.32 L79.216,19.32 L79.216,20.216 C78.7786667,19.8106667 78.3253333,19.52 77.856,19.344 C77.3866667,19.168 76.8266667,19.08 76.176,19.08 C75.3973333,19.08 74.7013333,19.248 74.088,19.584 C73.4746667,19.92 72.9946667,20.3946667 72.648,21.008 C72.3013333,21.6213333 72.128,22.3333333 72.128,23.144 C72.128,23.944 72.304,24.6533333 72.656,25.272 C73.008,25.8906667 73.4986667,26.3733333 74.128,26.72 C74.7573333,27.0666667 75.4613333,27.24 76.24,27.24 C76.816,27.24 77.3546667,27.1573333 77.856,26.992 C78.3573333,26.8266667 78.7893333,26.5786667 79.152,26.248 L79.152,26.248 L79.152,26.744 C79.152,27.5226667 78.9466667,28.1093333 78.536,28.504 C78.1253333,28.8986667 77.4506667,29.096 76.512,29.096 C75.4666667,29.096 74.528,28.9146667 73.696,28.552 L73.696,28.552 L73.696,30.152 C74.0373333,30.312 74.464,30.44 74.976,30.536 C75.488,30.632 76,30.68 76.512,30.68 Z M76.672,25.656 C75.9466667,25.656 75.3493333,25.4213333 74.88,24.952 C74.4106667,24.4826667 74.176,23.88 74.176,23.144 C74.176,22.408 74.4106667,21.8106667 74.88,21.352 C75.3493333,20.8933333 75.9466667,20.664 76.672,20.664 C77.248,20.664 77.76,20.8186667 78.208,21.128 C78.656,21.4373333 78.9706667,21.8533333 79.152,22.376 L79.152,22.376 L79.152,23.928 C78.9813333,24.4506667 78.6693333,24.8693333 78.216,25.184 C77.7626667,25.4986667 77.248,25.656 76.672,25.656 Z M87.408,27.24 C87.9733333,27.24 88.5413333,27.192 89.112,27.096 C89.6826667,27 90.1493333,26.8773333 90.512,26.728 L90.512,26.728 L90.512,25.176 C90.128,25.3253333 89.68,25.4426667 89.168,25.528 C88.656,25.6133333 88.1546667,25.656 87.664,25.656 C85.8186667,25.656 84.8266667,25.0853333 84.688,23.944 L84.688,23.944 L91.232,23.944 L91.232,23.016 C91.232,22.2586667 91.072,21.584 90.752,20.992 C90.432,20.4 89.9546667,19.9333333 89.32,19.592 C88.6853333,19.2506667 87.92,19.08 87.024,19.08 C85.6586667,19.08 84.608,19.448 83.872,20.184 C83.136,20.92 82.768,21.9173333 82.768,23.176 C82.768,24.456 83.184,25.4533333 84.016,26.168 C84.848,26.8826667 85.9786667,27.24 87.408,27.24 Z M89.328,22.568 L84.688,22.568 C84.7093333,21.9813333 84.9226667,21.5173333 85.328,21.176 C85.7333333,20.8346667 86.288,20.664 86.992,20.664 C87.7066667,20.664 88.2693333,20.8293333 88.68,21.16 C89.0906667,21.4906667 89.3066667,21.96 89.328,22.568 L89.328,22.568 Z" id="viewpage" fill="#130F3A" fill-rule="nonzero"></path>
            </g>
        </g>
    </g>
</svg>